<?xml version="1.0" encoding="UTF-8"?>
<svg version="1.1" xmlns="http://www.w3.org/2000/svg" width="1254" height="1254">
<path d="M0 0 C413.82 0 827.64 0 1254 0 C1254 413.82 1254 827.64 1254 1254 C840.18 1254 426.36 1254 0 1254 C0 840.18 0 426.36 0 0 Z " fill="#0266F1" transform="translate(0,0)"/>
<path d="M0 0 C7.66776866 1.06932712 7.66776866 1.06932712 11.27734375 2.05078125 C12.40487061 2.35326782 12.40487061 2.35326782 13.55517578 2.66186523 C14.73442627 2.98392944 14.73442627 2.98392944 15.9375 3.3125 C17.64173118 3.76896123 19.34616127 4.22468037 21.05078125 4.6796875 C22.31269287 5.01758301 22.31269287 5.01758301 23.60009766 5.36230469 C32.78190794 7.80206954 42.02220665 10.0095619 51.26293945 12.21289062 C62.33190397 14.85338945 73.34678824 17.6048494 84.31445312 20.640625 C103.20770566 25.86055663 122.21745768 30.58939074 141.24487305 35.29272461 C151.41272573 37.81180186 161.5527309 40.37831905 171.63293457 43.22927856 C178.95324192 45.29169286 186.32672731 47.12174601 193.71154785 48.93704224 C204.23811299 51.52657052 214.75299838 54.12137842 225.1730957 57.11499023 C234.12878125 59.65534134 243.18494849 61.82812115 252.22167969 64.05883789 C261.17601639 66.27243902 270.09541193 68.59337613 279 71 C279.00364563 71.58722839 279.00729126 72.17445679 279.01104736 72.77947998 C279.05317423 78.94533498 279.12272653 85.11046634 279.20751953 91.27587891 C279.23557623 93.57040129 279.25686607 95.86501757 279.27099609 98.15966797 C279.42495294 122.10483456 279.42495294 122.10483456 291.8125 141.90234375 C299.6073132 149.33570392 308.04997831 151.6095469 318.61523438 151.51757812 C319.62475662 151.5245874 320.63427887 151.53159668 321.6743927 151.53881836 C324.98113256 151.55629214 328.28700282 151.54481302 331.59375 151.53125 C333.90962893 151.53394795 336.22550676 151.53783289 338.54138184 151.54284668 C343.38300414 151.54872738 348.22433023 151.54022458 353.06591797 151.52148438 C359.25282117 151.49869614 365.43903013 151.51182684 371.6259079 151.53577423 C376.40449191 151.55027064 381.18291299 151.54560854 385.96150208 151.53526306 C388.24192895 151.53260641 390.52237091 151.5358279 392.80278015 151.54518127 C395.99717042 151.55541003 399.19045695 151.53975673 402.38476562 151.51757812 C403.31492996 151.52567505 404.2450943 151.53377197 405.20344543 151.54211426 C415.86718099 151.40586369 424.27360124 147.20517344 432 140 C437.14952835 134.66655992 438.94715721 127.98425283 441 121 C441.66 121 442.32 121 443 121 C443 104.83 443 88.66 443 72 C463.31438855 66.35711429 463.31438855 66.35711429 470.9375 64.625 C486.03133252 61.1029639 501.01841925 57.15268882 515.984375 53.125 C518.38538309 52.47904184 520.78642531 51.83321055 523.1875 51.1875 C524.39486816 50.86265625 525.60223633 50.5378125 526.84619141 50.203125 C534.37337874 48.19252404 541.91579819 46.25554925 549.4765625 44.375 C550.37423843 44.1516951 551.27191437 43.9283902 552.1967926 43.69831848 C556.63309847 42.59657626 561.07086904 41.50111284 565.51049805 40.4128418 C567.14893238 40.00832749 568.7873604 39.60378764 570.42578125 39.19921875 C571.15902618 39.02136841 571.89227112 38.84351807 572.6477356 38.66027832 C577.14834519 37.54566151 581.52159109 36.21001963 585.90124512 34.68688965 C589.60116781 33.47596282 593.39260692 32.66703917 597.1875 31.8125 C606.03047035 29.76509303 614.79903399 27.48842896 623.5625 25.125 C633.66453602 22.40259781 643.78234672 19.76840676 653.9375 17.25 C664.76353774 14.5641254 675.56134114 11.82055025 686.296875 8.7890625 C693.98109609 6.62243711 701.66856565 4.5315988 709.4375 2.6875 C710.15341309 2.51605469 710.86932617 2.34460938 711.60693359 2.16796875 C714.47854998 1.4996653 717.04033273 1 720 1 C720.0916217 37.4852129 720.1620723 73.97040557 720.20426132 110.45570989 C720.20926395 114.76637189 720.21444125 119.07703365 720.21972656 123.38769531 C720.22130043 124.67491931 720.22130043 124.67491931 720.22290608 125.98814783 C720.2402956 139.87017516 720.27182526 153.75213601 720.30861118 167.63412395 C720.34606109 181.88589414 720.36824441 196.1376296 720.37635398 210.38944697 C720.38183336 219.17854304 720.39911874 227.96745117 720.43166587 236.75648937 C720.4528638 242.78930809 720.45918814 248.82203011 720.45400551 254.85488334 C720.45145189 258.33185625 720.45527431 261.8085015 720.4768219 265.28541565 C720.49680756 269.06498642 720.49190682 272.84376176 720.48101807 276.62335205 C720.49849512 278.25181057 720.49849512 278.25181057 720.51632524 279.91316724 C720.38159376 297.28895149 711.68284855 312.8646819 699.91015625 325.1875 C694.30671246 330.53762355 688.15309906 334.07774629 681 337 C680.30626606 337.32883545 679.61253213 337.65767089 678.89777595 337.99647105 C667.88656725 342.52387695 656.15631155 341.54779263 644.46195984 341.49447632 C641.94203783 341.49765474 639.42211752 341.50258416 636.90220195 341.50910914 C631.43306716 341.51924507 625.9641555 341.51701379 620.49503136 341.5037384 C612.36199255 341.48405158 604.22907487 341.48738119 596.09602183 341.495239 C582.40899207 341.50777489 568.72203132 341.50146203 555.03500938 341.48405075 C541.47744799 341.46680822 527.9199176 341.45701075 514.36234474 341.45738602 C513.09626054 341.45740895 513.09626054 341.45740895 511.80459888 341.45743235 C508.37811844 341.45751417 504.95163802 341.4576454 501.52515759 341.45784398 C469.390032 341.45965558 437.25495358 341.4397761 405.11984436 341.40898465 C376.58648117 341.38174499 348.05315148 341.36926182 319.51977539 341.37060547 C317.68803744 341.37068629 315.85629949 341.37076701 314.02456155 341.37084763 C312.66618079 341.37090868 312.66618079 341.37090868 311.28035799 341.37097096 C306.72148778 341.37117257 302.16261758 341.37135373 297.60374737 341.37151146 C296.25457573 341.3715616 296.25457573 341.3715616 294.8781481 341.37161275 C271.01956917 341.37234367 247.16099443 341.36325937 223.30241901 341.35085833 C222.45331096 341.35041779 221.60420292 341.34997724 220.72936433 341.34952335 C217.31509969 341.34774695 213.90083506 341.34597012 210.48657045 341.34414144 C198.62328825 341.33782989 186.76000935 341.33480399 174.89672558 341.33391846 C159.60401054 341.33272251 144.31132311 341.32469933 129.01861986 341.30505554 C120.93662551 341.29485228 112.85467163 341.28999783 104.77267116 341.29304791 C98.73024334 341.29469655 92.68787814 341.2858395 86.64546189 341.27294691 C84.20681073 341.26933365 81.76815182 341.26904654 79.3295004 341.27248149 C56.46254952 341.30111611 36.36398352 341.16406924 19 324 C0.43686144 303.19934028 -0.45493004 280.97885647 -0.34057617 254.296875 C-0.33805061 251.51622271 -0.34007569 248.73557793 -0.34190369 245.95492554 C-0.34346714 239.99759845 -0.33415597 234.0403709 -0.31719017 228.08306885 C-0.29267748 219.47011599 -0.28498244 210.85721065 -0.2812262 202.24422669 C-0.27468082 188.26598071 -0.25477195 174.28778762 -0.22631836 160.30957031 C-0.19872801 146.74121361 -0.17751887 133.17287133 -0.16479492 119.60449219 C-0.16400675 118.76636301 -0.16321858 117.92823383 -0.16240653 117.0647068 C-0.15849106 112.85952895 -0.15470002 108.654351 -0.15097082 104.44917297 C-0.11993458 69.6327443 -0.06715134 34.81637705 0 0 Z " fill="#FCFCFC" transform="translate(261,624)"/>
<path d="M0 0 C2.52333416 -0.00489166 5.04666608 -0.01108274 7.56999421 -0.01845789 C13.04656814 -0.0314276 18.52302576 -0.03511562 23.9996109 -0.0304985 C32.14382484 -0.02365031 40.28795551 -0.03394449 48.43215787 -0.04745606 C63.82596292 -0.0723394 79.21973322 -0.07688636 94.61355516 -0.07499009 C106.50291618 -0.07361595 118.39226518 -0.07743993 130.28162384 -0.08491516 C131.99099317 -0.08596551 133.70036249 -0.08701312 135.40973182 -0.08805802 C136.68255972 -0.08883704 136.68255972 -0.08883704 137.98110132 -0.08963179 C138.83122386 -0.09015194 139.6813464 -0.09067208 140.55723023 -0.09120798 C141.40879826 -0.09173197 142.26036628 -0.09225597 143.13773939 -0.09279584 C167.08248664 -0.10737518 191.02722946 -0.11566338 214.97198105 -0.11104584 C216.32545324 -0.11078791 216.32545324 -0.11078791 217.7062683 -0.11052476 C222.27933915 -0.1096359 226.85240998 -0.10869109 231.42548081 -0.10772675 C232.33367265 -0.10753572 233.24186449 -0.10734469 234.1775773 -0.10714786 C236.01416112 -0.10676077 237.85074495 -0.10637044 239.68732877 -0.10597689 C268.26100699 -0.10000762 296.83460421 -0.11544354 325.40826416 -0.14758301 C357.52724759 -0.18367978 389.64617966 -0.20298996 421.76518464 -0.1980443 C425.19164419 -0.19757434 428.61810374 -0.19716408 432.04456329 -0.1967926 C432.88821462 -0.19669022 433.73186594 -0.19658783 434.60108245 -0.19648234 C447.32271934 -0.19528877 460.04430063 -0.20723821 472.76592255 -0.22593689 C487.23890998 -0.24719979 501.71178098 -0.25099732 516.18477365 -0.2316373 C524.27775857 -0.22133105 532.37045925 -0.22472998 540.46341832 -0.24816815 C546.51582442 -0.26413809 552.56789134 -0.25379674 558.62029651 -0.23344713 C561.06166053 -0.2292642 563.50305693 -0.23345089 565.94438669 -0.24704307 C588.49998444 -0.36402956 607.32086508 3.5107558 624.4307251 19.39440918 C638.02742724 33.31132351 641.72749416 49.8001988 641.73712158 68.66906738 C641.74475844 70.08113536 641.75318851 71.49319923 641.76234436 72.90525818 C641.78412664 76.71067378 641.79306435 80.51600917 641.7981708 84.32148004 C641.80182915 86.70189552 641.80807631 89.08229041 641.8151722 91.46269798 C641.8395953 99.77433562 641.85270625 108.08591133 641.85626221 116.39758301 C641.85990763 124.13680299 641.88989279 131.87562893 641.93166679 139.61472827 C641.96634412 146.2731408 641.98181008 152.93142227 641.98250824 159.58992451 C641.98330094 163.56118168 641.99203865 167.53203511 642.02050591 171.50319862 C642.04664823 175.23236146 642.04891415 178.9607842 642.03285027 182.68999672 C642.03016789 184.70836656 642.05223746 186.72672181 642.07504272 188.7449646 C641.99511272 198.60199557 641.99511272 198.60199557 639.03137207 201.68693542 C636.57341549 203.30072476 634.8405488 204.21470041 631.98150635 204.80065918 C631.14417969 204.98402832 630.30685303 205.16739746 629.44415283 205.35632324 C628.55284668 205.5338916 627.66154053 205.71145996 626.7432251 205.89440918 C624.82333091 206.31343826 622.90406485 206.73535481 620.9854126 207.16003418 C620.03505127 207.36692871 619.08468994 207.57382324 618.10552979 207.7869873 C614.48528465 208.60910942 610.93175946 209.60767297 607.3682251 210.64440918 C596.53291434 213.74918188 585.57579596 216.39158211 574.63555908 219.09655762 C566.41013147 221.13276355 558.20839321 223.23095498 550.02520752 225.4317627 C544.08742525 227.02197362 538.13380864 228.55017002 532.1807251 230.08190918 C530.85624572 230.42339797 529.5317833 230.76495254 528.20733643 231.10656738 C521.66706218 232.79276937 515.12545205 234.47366321 508.58187866 236.14701843 C505.50666362 236.93353563 502.43177023 237.7213068 499.35687256 238.50906372 C497.19987471 239.06101593 495.04236516 239.61093232 492.88482666 240.1607666 C485.82528747 241.96604915 478.79212762 243.84030707 471.77838135 245.81628418 C461.30331094 248.75963108 450.7444889 251.3538118 440.1807251 253.95690918 C429.17317976 256.66965592 418.19359679 259.39054892 407.31011963 262.56994629 C403.56002766 263.64371775 399.79842335 264.53603616 395.9932251 265.39440918 C389.28026706 266.93112895 382.63306441 268.63876587 375.9932251 270.46472168 C371.8276036 271.55180273 367.63848727 272.48678248 363.4307251 273.39440918 C363.41090576 272.73432861 363.39108643 272.07424805 363.3706665 271.39416504 C363.27479158 268.37304554 363.16536756 265.3525591 363.0557251 262.33190918 C363.00931885 260.77439941 363.00931885 260.77439941 362.9619751 259.1854248 C362.56992963 248.89423123 360.52985614 238.97188273 353.34869385 231.11706543 C343.74510258 222.33149727 334.59781619 219.08303977 321.70098877 219.11975098 C320.76163986 219.11464005 319.82229095 219.10952911 318.85447693 219.10426331 C315.7691499 219.09043722 312.68404805 219.09131903 309.59869385 219.09362793 C307.43929462 219.08973677 305.27989615 219.08540124 303.12049866 219.0806427 C298.60075395 219.07319519 294.08108737 219.07346084 289.56134033 219.07873535 C283.79160626 219.08452367 278.02219387 219.06760702 272.25251293 219.04439068 C267.79389093 219.0296018 263.33534545 219.02878872 258.87670326 219.03190041 C256.75060706 219.03138964 254.62450629 219.02619831 252.49843407 219.01608849 C236.58471739 218.94970537 223.77958255 219.11936542 211.4307251 230.39440918 C200.4281869 242.52129434 200.82127711 256.89963559 200.4307251 272.39440918 C194.76317815 271.06480118 189.09666293 269.73085716 183.4307251 268.39440918 C182.59122314 268.19653809 181.75172119 267.99866699 180.88677979 267.7947998 C168.81212234 264.94556792 156.76384235 262.00456656 144.73394775 258.9720459 C141.99554706 258.28526871 139.25422006 257.61097223 136.51153564 256.94152832 C130.35955969 255.41562039 124.24839027 253.79783149 118.1494751 252.07409668 C109.33012862 249.60476219 100.46640131 247.34328337 91.57653809 245.14328003 C88.97965489 244.50058272 86.38357866 243.85470608 83.78765869 243.20812988 C76.58176028 241.41417826 69.37403042 239.62763921 62.16574097 237.84332275 C60.28431208 237.37724375 58.40316956 236.91000925 56.52203369 236.44274902 C54.32762336 235.89777855 52.13269812 235.35487374 49.93707275 234.81481934 C43.85909252 233.30536446 37.82527529 231.67401813 31.7979126 229.97644043 C22.562665 227.38222657 13.26218045 225.1130083 3.9307251 222.89440918 C-5.22305493 220.71805324 -14.34277157 218.49732127 -23.39349365 215.92175293 C-29.92995071 214.06454936 -36.49469674 212.43818603 -43.12005615 210.92956543 C-44.90717791 210.51750976 -46.69428727 210.10540031 -48.48138428 209.6932373 C-51.20657374 209.06583241 -53.93258651 208.44573018 -56.66375732 207.84484863 C-59.36278419 207.24815655 -62.0538066 206.62278299 -64.74505615 205.99206543 C-65.5596077 205.81998062 -66.37415924 205.64789581 -67.21339417 205.47059631 C-67.97576889 205.28698044 -68.73814362 205.10336456 -69.52362061 204.91418457 C-70.18658646 204.76494034 -70.84955231 204.61569611 -71.53260803 204.46192932 C-74.87488652 202.71007208 -76.95224259 200.76048076 -78.5692749 197.39440918 C-79.30904353 192.90345775 -79.24178828 188.45891775 -79.20037842 183.9161377 C-79.20552136 182.54058409 -79.21280547 181.16503708 -79.22206116 179.789505 C-79.24055195 176.0614504 -79.22764564 172.33411257 -79.20797086 168.60608792 C-79.19153378 164.68932398 -79.20040564 160.77260368 -79.20549011 156.8558197 C-79.21001026 150.26936477 -79.19415822 143.68319384 -79.16619873 137.09680176 C-79.13426677 129.51692638 -79.13411612 121.9375665 -79.1514135 114.35765511 C-79.16737628 107.03629924 -79.16047514 99.71512959 -79.14347649 92.39378166 C-79.136661 89.29406621 -79.1375815 86.19450252 -79.14502144 83.09478951 C-79.15278178 79.42639264 -79.14024735 75.7585688 -79.11317253 72.09026909 C-79.10318789 70.12872448 -79.11237394 68.16711031 -79.12249756 66.20556641 C-78.9318714 48.12700982 -73.11702846 32.02726495 -60.3583374 19.08581543 C-42.35207687 1.7100262 -23.84810174 -0.05711523 0 0 Z " fill="#FCFCFC" transform="translate(339.56927490234375,391.6055908203125)"/>
<path d="M0 0 C413.82 0 827.64 0 1254 0 C1254 413.82 1254 827.64 1254 1254 C840.18 1254 426.36 1254 0 1254 C0 840.18 0 426.36 0 0 Z M231 23 C229.92805342 23.17125025 228.85610684 23.3425005 227.75167704 23.51894015 C204.9866813 27.32664852 182.67947489 34.77864797 162 45 C160.73615479 45.62261719 160.73615479 45.62261719 159.44677734 46.2578125 C139.62229644 56.12138401 121.5668219 67.89981016 105.25390625 82.9296875 C103.24696517 84.77315157 101.20087758 86.54779093 99.125 88.3125 C89.84459296 96.43051263 81.57730646 105.28069879 74 115 C73.18789062 116.01835938 72.37578125 117.03671875 71.5390625 118.0859375 C48.23148081 147.53750927 31.847159 182.78375777 24.0625 219.5 C23.87526367 220.38075195 23.68802734 221.26150391 23.49511719 222.16894531 C19.84180711 240.87252719 19.7068063 259.59512806 19.74306489 278.57813183 C19.74819265 282.43945332 19.7415972 286.30075923 19.73657823 290.16207844 C19.72939137 296.91278751 19.72955136 303.66346453 19.73467255 310.41417503 C19.74226737 320.45312203 19.73835458 330.49204221 19.73225593 340.53098905 C19.72174564 358.46543018 19.72262881 376.39985702 19.72841376 394.33429949 C19.7334515 410.02997196 19.73475518 425.72563921 19.73236847 441.42131233 C19.7322157 442.4637956 19.73206293 443.50627887 19.73190553 444.58035255 C19.73128282 448.81249798 19.73064601 453.04464341 19.729986 457.27678884 C19.72387243 496.95163748 19.72940782 536.62647704 19.7401798 576.30132428 C19.74966981 611.52225816 19.74882182 646.74317758 19.73925781 681.96411133 C19.72853992 721.56643825 19.72430676 761.16875715 19.73048234 800.77108532 C19.73112374 804.99568085 19.73174942 809.22027637 19.73236847 813.4448719 C19.73252662 814.48501855 19.73268478 815.52516519 19.73284773 816.59683143 C19.73511918 832.27896219 19.73246862 847.96108714 19.72740936 863.64321709 C19.72168298 881.48178942 19.72313724 899.32034528 19.73397085 917.15891557 C19.73982895 927.13285598 19.74024774 937.10676069 19.7326785 947.08070014 C19.72817429 953.75390547 19.73101979 960.42708233 19.73968804 967.10028345 C19.74441771 970.89499342 19.74613111 974.68963277 19.73887607 978.48434036 C19.70296816 998.774226 20.06947279 1018.65322258 24.6875 1038.5 C24.94805176 1039.64017578 25.20860352 1040.78035156 25.47705078 1041.95507812 C27.91665045 1052.2687858 31.11866122 1062.14673454 35 1072 C35.44400146 1073.14976318 35.44400146 1073.14976318 35.89697266 1074.32275391 C42.91798576 1092.35890589 51.52765636 1110.35589503 63 1126 C63.42716309 1126.59796387 63.85432617 1127.19592773 64.29443359 1127.81201172 C71.12773397 1137.37198183 78.51845652 1146.0777339 86.64306641 1154.55761719 C88.3341958 1156.35524087 89.92023405 1158.22928086 91.5 1160.125 C101.22405876 1171.29580896 113.08553605 1180.3166252 125 1189 C125.88365234 1189.65282959 125.88365234 1189.65282959 126.78515625 1190.31884766 C167.51095346 1220.11907572 220.01077989 1235.22945448 270.09706783 1235.12584114 C271.96585939 1235.1280213 271.96585939 1235.1280213 273.87240431 1235.13024551 C277.30137829 1235.13324605 280.73029667 1235.13182802 284.1592667 1235.12846755 C287.90087191 1235.12591475 291.64247299 1235.12919711 295.38407761 1235.13171089 C301.93219738 1235.13531223 308.48030889 1235.13521938 315.02842903 1235.13266373 C324.76594646 1235.12887365 334.50345695 1235.13081893 344.24097434 1235.13387203 C361.63473817 1235.13913283 379.02849832 1235.13868334 396.4222625 1235.13579312 C411.64459225 1235.13327619 426.86692065 1235.13262151 442.08925056 1235.13381577 C443.09953083 1235.13389215 444.1098111 1235.13396854 445.15070593 1235.13404724 C449.2519174 1235.13435858 453.35312887 1235.13467698 457.45434034 1235.135007 C495.91703796 1235.13806512 534.37973324 1235.13529396 572.84243049 1235.1299101 C607.00180713 1235.12516496 641.16118004 1235.12558893 675.32055664 1235.13037109 C713.71202736 1235.13572779 752.10349601 1235.13784787 790.49496704 1235.13475883 C794.58895592 1235.13443812 798.68294479 1235.13412528 802.77693367 1235.13381577 C803.78495432 1235.13373669 804.79297497 1235.13365761 805.8315417 1235.13357614 C821.04227611 1235.13243948 836.25300901 1235.13376742 851.46374321 1235.13629532 C868.76275756 1235.13915596 886.06176766 1235.1384368 903.36078148 1235.13301457 C913.03801938 1235.13008124 922.71524808 1235.12988236 932.39248573 1235.13366075 C938.8617108 1235.13590767 945.3309285 1235.13449937 951.80015248 1235.13015598 C955.48253399 1235.12778403 959.16489725 1235.12694961 962.84727817 1235.13056196 C992.03377054 1235.15702074 1019.82389267 1233.0370174 1048 1225 C1049.47726562 1224.60748047 1049.47726562 1224.60748047 1050.984375 1224.20703125 C1075.0815282 1217.41775396 1099.79987484 1205.81745708 1120 1191 C1120.96421875 1190.30648438 1121.9284375 1189.61296875 1122.921875 1188.8984375 C1142.18839718 1174.77298212 1160.70241051 1158.21438907 1174.72705078 1138.76464844 C1176.09946354 1136.8621169 1177.50087986 1134.98277775 1178.90234375 1133.1015625 C1191.94564622 1115.35836975 1201.73033376 1096.36530786 1210 1076 C1210.45197754 1074.91259521 1210.45197754 1074.91259521 1210.91308594 1073.80322266 C1223.56761722 1043.24007025 1226.64195498 1010.90790446 1226.50766886 978.14793191 C1226.49639494 974.27707217 1226.50884867 970.40626541 1226.51797634 966.53540981 C1226.53075678 959.78336061 1226.52901739 953.03144333 1226.51719666 946.27939415 C1226.49966707 936.23848122 1226.50536726 926.19767019 1226.51536357 916.15675167 C1226.53247886 898.21588051 1226.52706407 880.27507082 1226.51200638 862.33420099 C1226.49891764 846.63691761 1226.49376575 830.93965548 1226.49632454 815.24236679 C1226.49648495 814.1982336 1226.49664537 813.1541004 1226.49681065 812.07832681 C1226.49747431 807.83915436 1226.49817673 803.59998192 1226.49893599 799.36080949 C1226.50594766 759.65895246 1226.49050916 719.95713282 1226.46431253 680.2552853 C1226.44119017 645.02597274 1226.4358144 609.79670125 1226.44604492 574.56738281 C1226.4486472 565.54095524 1226.45123228 556.51452767 1226.45364285 547.48810005 C1226.45394029 546.37664035 1226.45423774 545.26518065 1226.4545442 544.12004036 C1226.46216707 514.62753954 1226.45574 485.13504205 1226.44494683 455.64254272 C1226.44379909 452.46749174 1226.44265591 449.29244076 1226.44152 446.11738978 C1226.44076476 444.01140941 1226.43999911 441.90542905 1226.43922299 439.7994487 C1226.43357722 424.11253303 1226.43488603 408.42562801 1226.43945122 392.73871231 C1226.44456985 374.89716402 1226.43865779 357.05565542 1226.41855692 339.21411701 C1226.40761049 329.24296493 1226.40474022 319.27189096 1226.41384545 309.30073658 C1226.41909566 302.62590805 1226.4132879 295.95114587 1226.39879211 289.27633122 C1226.39084963 285.48331178 1226.38735921 281.69044922 1226.39736467 277.89743103 C1226.53718768 220.17432522 1210.35564463 165.20131032 1175 119 C1174.35200439 118.14680176 1174.35200439 118.14680176 1173.69091797 117.27636719 C1160.40441049 99.91900232 1144.73816254 84.06131037 1127.1875 71 C1126.13949219 70.21919067 1126.13949219 70.21919067 1125.0703125 69.42260742 C1114.58461503 61.6754053 1103.43488798 55.22496258 1092 49 C1090.55560547 48.21302734 1090.55560547 48.21302734 1089.08203125 47.41015625 C1072.86384244 38.96172023 1055.62632846 32.74468782 1038 28 C1036.95247559 27.70851074 1036.95247559 27.70851074 1035.88378906 27.41113281 C1013.3224132 21.19889429 990.17221605 20.54744903 966.91424138 20.6207987 C963.08502565 20.62945326 959.25583992 20.62037124 955.42662573 20.61373454 C948.74167338 20.60451381 942.05679657 20.60623251 935.37184525 20.61546707 C925.43094811 20.62916121 915.49010814 20.6254707 905.5492067 20.61850847 C887.78945427 20.60662545 870.02973751 20.61163423 852.26998707 20.62378674 C836.73261609 20.63434557 821.19525723 20.63885934 805.65788269 20.63749123 C804.62508091 20.6374072 803.59227913 20.63732317 802.52818033 20.63723659 C798.33521771 20.63688431 794.1422551 20.63650029 789.94929249 20.63607101 C750.66872921 20.63211162 711.38818734 20.6447983 672.10763019 20.66559757 C637.234834 20.68397609 602.36205832 20.68977655 567.48925781 20.68432617 C565.24876008 20.68397974 563.00826236 20.68363364 560.76776463 20.68328788 C559.10624456 20.68303139 559.10624456 20.68303139 557.41115843 20.68276971 C551.83483815 20.68191613 546.25851786 20.68109234 540.68219757 20.68030071 C539.58198815 20.68014363 538.48177872 20.67998655 537.34822962 20.67982471 C508.17195086 20.67583281 478.99567406 20.68131248 449.8193965 20.689812 C446.67941159 20.69071901 443.53942669 20.69162466 440.39944179 20.69252724 C438.31663516 20.69312834 436.23382854 20.69373696 434.15102192 20.69435314 C419.64856944 20.69856963 405.14612085 20.69915484 390.64366796 20.69724765 C371.9579997 20.69480246 353.27235223 20.69889506 334.58668965 20.71445765 C324.7120694 20.72249292 314.83748374 20.72512047 304.96286144 20.7198153 C298.35989936 20.71682949 291.75696776 20.72116821 285.15401296 20.73136387 C281.3970699 20.73696777 277.64019716 20.73953078 273.88325363 20.73319729 C259.47312943 20.71093932 245.26011252 20.69429385 231 23 Z " fill="#FCFDFE" transform="translate(0,0)"/>
<path d="M0 0 C2.17754795 -0.00435231 4.35509438 -0.00953719 6.53263855 -0.01548767 C12.42318542 -0.0288327 18.31366794 -0.02946137 24.20422697 -0.02692437 C29.13196469 -0.02585165 34.05968954 -0.0307457 38.98742449 -0.03552979 C50.61776551 -0.04660934 62.24807423 -0.04707106 73.87841797 -0.04101562 C85.8543748 -0.03497589 97.83017404 -0.04729044 109.80611742 -0.06858569 C120.10964942 -0.08622968 130.41314412 -0.09219865 140.71669066 -0.08894795 C146.86111055 -0.08713949 153.00544662 -0.08972766 159.14985275 -0.10366249 C164.93000418 -0.11628181 170.70997306 -0.11425792 176.49012184 -0.1012516 C178.60357158 -0.09889525 180.71703433 -0.10158652 182.83046913 -0.10987473 C196.96908969 -0.16129633 209.95809616 0.22109588 222.73681641 7.0246582 C223.41373535 7.37608887 224.0906543 7.72751953 224.78808594 8.08959961 C230.17131873 10.95626473 234.96912504 14.15683782 239.48681641 18.2746582 C240.30537109 19.00168945 241.12392578 19.7287207 241.96728516 20.4777832 C255.49981358 33.17092635 263.78963175 50.41728681 264.66165161 69.00048828 C264.74185463 73.29386979 264.71235918 77.5863679 264.68212891 81.88012695 C264.67839025 83.45624104 264.67554732 85.03235747 264.67355347 86.60847473 C264.66598406 90.72000758 264.64639462 94.83139499 264.62414551 98.94287109 C264.59990706 103.89567307 264.59087417 108.84852417 264.57923889 113.80136871 C264.55996508 121.29256579 264.52159635 128.78344491 264.48681641 136.2746582 C247.32681641 136.2746582 230.16681641 136.2746582 212.48681641 136.2746582 C212.47263672 131.75907227 212.45845703 127.24348633 212.44384766 122.59106445 C212.4237697 119.71533676 212.40223302 116.83976594 212.37548828 113.96411133 C212.33325641 109.40846699 212.29617426 104.85322068 212.29125977 100.29736328 C212.28695352 96.62058481 212.25830174 92.94470044 212.21338463 89.26820183 C212.20048317 87.87177697 212.19607569 86.4752447 212.20066261 85.07876778 C212.22401698 75.80217903 211.47715995 68.7222066 205.04450989 61.70021057 C199.28635555 56.45094617 193.15312474 55.97872128 185.77078247 56.00723267 C184.90558735 56.00270155 184.04039222 55.99817044 183.14897907 55.99350202 C180.25649129 55.98086492 177.36419197 55.98247794 174.47167969 55.98413086 C172.39512897 55.97814523 170.31858048 55.9713396 168.24203491 55.96377563 C162.60565727 55.94611309 156.96934036 55.94142017 151.33293772 55.94014406 C147.81077728 55.93872218 144.28863228 55.93445189 140.76647568 55.92914963 C128.47679413 55.91064928 116.18715595 55.90247912 103.89746094 55.90405273 C92.44464958 55.90525449 80.99202658 55.88414543 69.53926289 55.85256541 C59.70299586 55.82640996 49.86679039 55.81568512 40.03048885 55.81696355 C34.15719218 55.81747335 28.28406294 55.81177991 22.41080093 55.79060745 C16.88676988 55.77123727 11.36306622 55.77109245 5.83902359 55.78564072 C3.81377687 55.78773133 1.78850973 55.78301289 -0.23670197 55.7709198 C-3.00591256 55.75545738 -5.77399563 55.76478202 -8.54318237 55.78018188 C-9.34066796 55.76989476 -10.13815355 55.75960763 -10.95980537 55.74900877 C-17.6170755 55.83057291 -22.84031298 57.84477583 -27.79052734 62.3449707 C-28.61230469 63.36204102 -28.61230469 63.36204102 -29.45068359 64.3996582 C-30.01658203 65.08286133 -30.58248047 65.76606445 -31.16552734 66.4699707 C-33.73610706 69.91231224 -33.66170985 72.2924885 -33.71850586 76.56030273 C-33.72840546 77.20433044 -33.73830505 77.84835815 -33.74850464 78.51190186 C-33.78012859 80.64372056 -33.80488047 82.77556156 -33.82958984 84.9074707 C-33.85015861 86.38435449 -33.87115506 87.86123238 -33.89256287 89.33810425 C-33.94779158 93.22771431 -33.99719729 97.11737757 -34.04541016 101.00708008 C-34.10444507 105.67274299 -34.17067743 110.33830856 -34.23571014 115.00389099 C-34.33372975 122.09408734 -34.42257873 129.18434575 -34.51318359 136.2746582 C-51.67318359 136.2746582 -68.83318359 136.2746582 -86.51318359 136.2746582 C-86.63351002 118.61786903 -86.63351002 118.61786903 -86.65966797 111.0090332 C-86.6775032 105.8458515 -86.69844998 100.68283153 -86.73950195 95.51977539 C-86.77243886 91.35057444 -86.79010779 87.18154727 -86.79781532 83.0122261 C-86.80329797 81.43285009 -86.81400128 79.85348204 -86.83037376 78.27418137 C-86.95935716 65.29952052 -86.09593415 52.70977233 -79.82568359 41.0246582 C-79.47900635 40.35700439 -79.1323291 39.68935059 -78.77514648 39.00146484 C-75.66585458 33.19880932 -71.95222336 28.14035414 -67.51318359 23.2746582 C-66.99626953 22.6662207 -66.47935547 22.0577832 -65.94677734 21.4309082 C-48.63904837 2.34469079 -24.13366576 -0.03190472 0 0 Z " fill="#FAFBFC" transform="translate(533.51318359375,240.725341796875)"/>
<path d="M0 0 C1.08128677 -0.00744736 1.08128677 -0.00744736 2.18441772 -0.01504517 C4.5639543 -0.02962328 6.94342419 -0.03646165 9.32299805 -0.04199219 C10.98203024 -0.0477474 12.64106243 -0.05350509 14.3000946 -0.05926514 C17.77770293 -0.06976287 21.25528822 -0.07561351 24.73291016 -0.07910156 C29.17813733 -0.08458248 33.62305763 -0.10860697 38.06818867 -0.13707352 C41.49552791 -0.15574356 44.92279388 -0.16090782 48.35017967 -0.16243744 C49.98836125 -0.16545485 51.62654182 -0.17345247 53.26467323 -0.18662262 C55.56209962 -0.20377436 57.85878468 -0.201781 60.15625 -0.1953125 C61.46100784 -0.19895813 62.76576569 -0.20260376 64.11006165 -0.20635986 C69.02904423 0.28725387 72.93557822 1.61028238 76.74276733 4.82505798 C82.16554306 12.30507983 81.60903986 20.3410686 81.4987793 29.16503906 C81.49774004 30.8145294 81.49878337 32.46402223 81.50180054 34.11351013 C81.50162188 37.55741741 81.48092765 41.00038061 81.44458008 44.4440918 C81.3991699 48.84114066 81.39813154 53.23681518 81.41161537 57.63403416 C81.41832235 61.03578238 81.40498453 64.43722162 81.3853569 67.83891106 C81.37770231 69.45948606 81.37533581 71.08009557 81.37852859 72.7006855 C81.38431709 90.26677716 81.38431709 90.26677716 75.3253479 96.69654846 C70.25651762 101.27241948 66.1474062 101.28822065 59.52856445 101.33813477 C58.80610031 101.34470596 58.08363617 101.35127716 57.33927917 101.35804749 C54.95494473 101.37771445 52.570673 101.38942684 50.1862793 101.39941406 C48.96185183 101.40552735 48.96185183 101.40552735 47.71268845 101.41176414 C43.39399216 101.4325944 39.07532739 101.44691056 34.7565918 101.45629883 C30.30220745 101.46737105 25.84832156 101.50178869 21.39411354 101.54147053 C17.96252527 101.56763818 14.53105595 101.57599066 11.09937668 101.57958031 C9.45756022 101.58444405 7.81574899 101.59605209 6.1740303 101.6146183 C3.87383877 101.63901936 1.57494008 101.63804395 -0.7253418 101.63110352 C-2.68580948 101.63990288 -2.68580948 101.63990288 -4.68588257 101.64888 C-9.98417249 100.91926438 -13.01805083 98.50164706 -16.5402832 94.59863281 C-19.43713662 90.41428899 -19.4065891 86.61730645 -19.46826172 81.71142578 C-19.48125809 80.95491226 -19.49425446 80.19839874 -19.50764465 79.41896057 C-19.63441933 71.50550713 -19.69111412 63.59099828 -19.74267578 55.67675781 C-19.76939559 51.92648219 -19.81809191 48.17748186 -19.88623047 44.42773438 C-19.96843388 39.89185072 -20.01089833 35.35717906 -20.02573967 30.82059097 C-20.03794515 29.0974006 -20.0638803 27.37424754 -20.10418892 25.65148544 C-20.44065293 10.51001642 -20.44065293 10.51001642 -15.42675781 4.59521484 C-10.56354423 -0.0707708 -6.57669155 0.03447993 0 0 Z " fill="#FBFBFC" transform="translate(591.227783203125,642.8388671875)"/>
<path d="M0 0 C3.12197367 0.98989409 6.01528915 2.00780722 8.9375 3.5 C22.17237065 9.12122512 39.06678992 7.29106379 53.07566833 7.2784729 C55.61711859 7.28348124 58.15856725 7.2893586 60.7000137 7.29602563 C66.2064233 7.30849379 71.71278699 7.31487946 77.21920967 7.31578636 C85.40690904 7.31716843 93.59456329 7.32998809 101.78224747 7.3450741 C115.55851075 7.37013708 129.33477018 7.38603928 143.11105156 7.39665604 C156.7442857 7.40719273 170.3775053 7.42184059 184.01072884 7.44193649 C185.28392806 7.44380979 185.28392806 7.44380979 186.58284848 7.44572094 C190.89376172 7.452085 195.20467484 7.45852211 199.51558793 7.46498732 C230.02153346 7.51060682 260.52748372 7.54707294 291.03344727 7.578125 C320.66301159 7.60830599 350.29256632 7.64265244 379.92211914 7.68261719 C380.83600252 7.68384819 381.7498859 7.68507919 382.69146272 7.6863475 C391.86935268 7.69871473 401.04724253 7.71116642 410.22513229 7.72367998 C428.92027492 7.74916788 447.61541829 7.7740922 466.31056213 7.79867554 C467.59982017 7.8003719 467.59982017 7.8003719 468.91512383 7.80210253 C526.27673809 7.87751248 583.63836807 7.93974516 641 8 C636.88424335 12.11575665 629.03145944 11.11745481 623.46399403 11.13486269 C622.51723962 11.13280737 621.57048521 11.13075205 620.59504128 11.12863445 C619.56734041 11.13038749 618.53963954 11.13214053 617.48079622 11.13394669 C614.03288915 11.13860315 610.58502431 11.13614208 607.13711548 11.13371277 C604.64183339 11.13558091 602.1465516 11.13788163 599.65127027 11.14057809 C594.22378136 11.14542277 588.7963052 11.14715041 583.36881447 11.14612198 C575.29782702 11.14459637 567.22684943 11.14876028 559.1558639 11.1539966 C543.90241754 11.16366635 528.64897454 11.16648069 513.39552547 11.16705366 C501.61710078 11.16751321 489.83867741 11.16957156 478.06025314 11.17275429 C474.6698546 11.17365183 471.27945606 11.17454164 467.88905752 11.17542917 C466.62476979 11.17576074 466.62476979 11.17576074 465.33494091 11.17609901 C441.62811292 11.1822529 417.92128538 11.1861996 394.21445656 11.18575573 C393.32070641 11.18574015 392.42695627 11.18572457 391.50612279 11.18570852 C386.97621671 11.18562541 382.44631064 11.18552637 377.91640456 11.18542381 C377.01674675 11.18540387 376.11708895 11.18538392 375.19016878 11.18536337 C373.37084231 11.18532294 371.55151584 11.18528114 369.73218937 11.18523798 C341.42106382 11.18462511 313.10995025 11.19213408 284.79882812 11.20581055 C252.99270416 11.22116903 221.18658805 11.22977693 189.38046014 11.22884732 C185.98943289 11.22877269 182.59840564 11.22872399 179.20737839 11.22869301 C177.95493868 11.22867553 177.95493868 11.22867553 176.67719715 11.22865769 C163.23793953 11.22862691 149.7986923 11.23501393 136.35943776 11.24362527 C122.85501533 11.25209947 109.35060812 11.25309351 95.84618451 11.24651595 C87.8231419 11.24281892 79.8001455 11.24465725 71.77710779 11.25445829 C65.78729046 11.26115744 59.7975277 11.25740919 53.80770974 11.24958507 C51.38382975 11.24804379 48.95994477 11.24988974 46.53607066 11.25544515 C43.24284526 11.26249383 39.94985829 11.25722032 36.65664101 11.24888897 C35.24353289 11.25634124 35.24353289 11.25634124 33.80187714 11.26394406 C27.13502219 11.22826185 19.88420778 11.01704363 13.85803375 7.88769097 C11.96615995 6.72886346 11.96615995 6.72886346 9.6875 7.6875 C5.92527049 8.12496855 4.32693354 6.57602858 1.35546875 4.421875 C0 3 0 3 0 0 Z " fill="#437CD3" transform="translate(291,957)"/>
<path d="M0 0 C2.64 0 5.28 0 8 0 C8.144375 0.94875 8.28875 1.8975 8.4375 2.875 C8.82935399 5.8934494 8.82935399 5.8934494 10 8 C9.85796646 8.81039891 9.71593292 9.62079782 9.56959534 10.45575428 C8.80312624 15.22502581 8.86924312 19.88535959 8.88647461 24.70793152 C8.88632575 25.78743822 8.88617689 26.86694492 8.88602352 27.97916394 C8.88671808 31.59705038 8.89456085 35.21488606 8.90234375 38.83276367 C8.90426291 41.42660493 8.90572672 44.02044657 8.9067688 46.61428833 C8.90965325 52.20122605 8.91608925 57.78815053 8.92483521 63.37508202 C8.93740511 71.46478072 8.94346985 79.55447454 8.94776857 87.64418141 C8.9548343 100.78565932 8.96563354 113.92713108 8.97949219 127.06860352 C8.98073391 128.24795525 8.98073391 128.24795525 8.98200071 129.45113228 C8.98874246 135.82747313 8.99566521 142.20381378 9.00260353 148.58015442 C9.00865446 154.14661653 9.01463566 159.71307871 9.02050781 165.27954102 C9.02175 166.45517809 9.02175 166.45517809 9.02301729 167.65456542 C9.03672242 180.7414803 9.0464717 193.82839528 9.05341816 206.91531545 C9.05788973 214.97999654 9.06590988 223.04465916 9.07856297 231.10933165 C9.08801624 237.29595206 9.09233918 243.48256634 9.0948143 249.66919327 C9.09668278 252.20113248 9.10027667 254.73307112 9.10574722 257.26500511 C9.11299437 260.72906816 9.11399964 264.19308088 9.11352539 267.65715027 C9.11712035 268.65211759 9.12071531 269.64708492 9.12441921 270.67220277 C9.11023964 280.38388846 8.55980723 289.51883079 5.4375 298.75 C5.16808594 299.54921875 4.89867187 300.3484375 4.62109375 301.171875 C4.41613281 301.77515625 4.21117187 302.3784375 4 303 C3.01 303 2.02 303 1 303 C1.47811177 301.22888156 1.9575278 299.45811517 2.4375 297.6875 C2.83775391 296.20830078 2.83775391 296.20830078 3.24609375 294.69921875 C3.78079425 292.78482474 4.37144538 290.88566385 5 289 C5.09535219 287.37982973 5.13372788 285.75602 5.1386652 284.13305378 C5.14413964 283.12386271 5.14961409 282.11467164 5.15525442 281.07489902 C5.15672158 279.40711714 5.15672158 279.40711714 5.15821838 277.7056427 C5.16562535 275.93770317 5.16562535 275.93770317 5.17318195 274.13404769 C5.18591092 270.8571706 5.19418553 267.58031652 5.20060861 264.30342209 C5.2086063 260.77173208 5.22230625 257.24006373 5.23532104 253.70838928 C5.25709276 247.58772776 5.27523471 241.46706406 5.29092598 235.34638405 C5.31361828 226.49685939 5.34176199 217.64735872 5.37124526 208.79785439 C5.41892902 194.44084905 5.46219108 180.08383392 5.50268555 165.72680664 C5.54203648 151.7785567 5.58346174 137.83031546 5.62768555 123.88208008 C5.63040982 123.02261352 5.63313409 122.16314697 5.63594092 121.27763597 C5.64962033 116.96603524 5.66334062 112.65443465 5.67708123 108.34283412 C5.79105833 72.56190749 5.89786496 36.78096229 6 1 C4.02 1 2.04 1 0 1 C0 0.67 0 0.34 0 0 Z " fill="#1359CE" transform="translate(975,624)"/>
<path d="M0 0 C4.75 0.875 4.75 0.875 7 2 C6.83757813 2.639375 6.67515625 3.27875 6.5078125 3.9375 C5.83770646 7.97875488 5.8550878 11.91136184 5.875 16 C5.87113281 16.7940625 5.86726562 17.588125 5.86328125 18.40625 C5.86998121 22.4262284 6.1172976 26.06121869 7 30 C6.66666667 31.66666667 6.33333333 33.33333333 6 35 C5.96295938 37.60107457 6.00011909 40.19246437 6.0625 42.79296875 C6 45 6 45 5 47 C5.66 47.33 6.32 47.66 7 48 C6.79632812 48.556875 6.59265625 49.11375 6.3828125 49.6875 C5.88513889 52.69385484 6.65145059 54.23224685 7.875 57 C9.17874573 59.99040978 10.30545339 62.8080411 11 66 C11.99 66 12.98 66 14 66 C14.33 66.66 14.66 67.32 15 68 C15.66 68 16.32 68 17 68 C18.35278115 69.98689731 19.68568305 71.98745218 21 74 C21.66 74.33 22.32 74.66 23 75 C23 75.66 23 76.32 23 77 C23.886875 77.144375 24.77375 77.28875 25.6875 77.4375 C27.50367704 77.74590742 29.31851263 78.07957334 31.10575867 78.52607727 C35.2798363 79.20956909 39.39740679 79.14737945 43.62036133 79.14526367 C44.58359818 79.14862228 45.54683502 79.1519809 46.53926086 79.15544128 C49.72019749 79.16493171 52.90108135 79.16689349 56.08203125 79.16796875 C58.29774497 79.17118282 60.51345848 79.17454701 62.72917175 79.17805481 C67.37357068 79.18404142 72.01795101 79.1858952 76.66235352 79.18530273 C82.60390733 79.18520118 88.54534148 79.19884883 94.48686695 79.21607494 C99.0637415 79.22721209 103.64058728 79.22922141 108.21747398 79.22869301 C110.40745137 79.22987071 112.59742956 79.23428068 114.78739357 79.24202538 C117.85549848 79.25185907 120.92334573 79.24893373 123.99145508 79.24291992 C125.33913971 79.25134918 125.33913971 79.25134918 126.71405029 79.25994873 C134.30511243 79.22227585 141.47587585 78.16433456 148 74 C149.86213912 71.97894748 151.59863088 69.90879704 153.2890625 67.7421875 C155.19063872 65.80587929 156.35216623 65.38156557 159 65 C159.1227832 64.27522461 159.24556641 63.55044922 159.37207031 62.80371094 C159.99183422 60.03646026 160.94570164 57.74709936 162.046875 55.140625 C165.36402782 45.35712365 164.41927807 34.94980228 164.25 24.75 C164.22990146 22.6367357 164.21165664 20.52345292 164.1953125 18.41015625 C164.15158962 13.27297492 164.08274725 8.13669488 164 3 C164.66 2.67 165.32 2.34 166 2 C166.10222931 8.75849341 166.17181011 15.51678416 166.21972656 22.27587891 C166.2397223 24.57055106 166.26692802 26.86517304 166.30175781 29.15966797 C166.73769606 58.63678637 166.73769606 58.63678637 156.20703125 70.80859375 C148.70607502 78.25644587 140.01111414 82.29885599 129.45228577 82.41769409 C128.51493088 82.41319244 127.57757599 82.4086908 126.61181641 82.40405273 C125.09797112 82.41434761 125.09797112 82.41434761 123.55354309 82.42485046 C120.2360708 82.44306699 116.9190738 82.43928788 113.6015625 82.43359375 C111.28282519 82.43815828 108.96408923 82.44346466 106.64535522 82.44947815 C101.79183447 82.45839939 96.93847833 82.45599757 92.08496094 82.44604492 C85.88233121 82.43456177 79.68027134 82.45476238 73.47771645 82.48396206 C68.69056623 82.50235828 63.90355168 82.50202464 59.11637497 82.49632454 C56.83035864 82.49617172 54.5443329 82.5021835 52.25835037 82.51461601 C49.05420024 82.52958699 45.85109147 82.5188031 42.64697266 82.50170898 C41.24701302 82.51621094 41.24701302 82.51621094 39.81877136 82.53100586 C29.31408733 82.41436612 21.76265522 78.62842621 14.26171875 71.421875 C5.09878648 61.61009951 2.50627978 51.53182629 2.70703125 38.3046875 C2.71127609 37.23123077 2.71552094 36.15777405 2.71989441 35.05178833 C2.7365434 31.65925872 2.77416976 28.26734681 2.8125 24.875 C2.82756464 22.55990448 2.84124991 20.24479954 2.85351562 17.9296875 C2.88640158 12.2862514 2.93646139 6.64316985 3 1 C2.01 0.67 1.02 0.34 0 0 Z " fill="#2562CC" transform="translate(537,694)"/>
<path d="M0 0 C-3.81710184 3.81710184 -10.73654781 3.11370117 -15.90498132 3.12997866 C-16.61138829 3.12716749 -17.31779527 3.12435632 -18.04560852 3.12145996 C-18.82261606 3.12239639 -19.5996236 3.12333282 -20.40017682 3.12429762 C-23.01330957 3.12613099 -25.62637499 3.12070162 -28.23950195 3.11523438 C-30.15753106 3.11482413 -32.07556028 3.1148119 -33.9935894 3.11515808 C-39.33081637 3.11462277 -44.66801611 3.10731866 -50.00523543 3.09871864 C-54.64886657 3.09197336 -59.29249783 3.08888482 -63.93613249 3.08559561 C-132.44291847 3.03446233 -200.94966214 2.77933395 -269.45604336 2.55461884 C-282.64492817 2.5113854 -295.83381561 2.46903401 -309.02270508 2.42724609 C-309.96536723 2.4242591 -310.90802938 2.4212721 -311.87925705 2.41819459 C-316.61312228 2.40319888 -321.34698756 2.38821716 -326.08085287 2.37324238 C-364.72057566 2.25099436 -403.36029043 2.12635682 -442 2 C-442 1.67 -442 1.34 -442 1 C-386.70272346 0.87251167 -331.40544673 0.74510785 -276.10816973 0.61781773 C-269.58293672 0.60279707 -263.05770371 0.5877757 -256.5324707 0.57275391 C-254.58384882 0.56826798 -254.58384882 0.56826798 -252.59586085 0.56369144 C-231.54881282 0.51523736 -210.50176493 0.46672644 -189.45471709 0.41819459 C-167.86579652 0.36841452 -146.27687581 0.31869534 -124.68795496 0.26903296 C-111.36160268 0.23837556 -98.03525052 0.2076704 -84.70889849 0.17690456 C-75.57614927 0.15582481 -66.44339992 0.13480411 -57.31065046 0.11383021 C-52.03801439 0.10171953 -46.76537839 0.08958247 -41.49274254 0.07737541 C-36.66709028 0.06620378 -31.84143785 0.05510616 -27.01578528 0.0440678 C-25.2687005 0.04005832 -23.52161577 0.03602152 -21.77453112 0.03195482 C-19.40131791 0.02643466 -17.0281045 0.02101369 -14.65489101 0.01561737 C-13.33612231 0.01257961 -12.0173536 0.00954185 -10.65862221 0.00641203 C-7.10573926 0.00018532 -3.55288754 -0.00114772 0 0 Z " fill="#0044C0" transform="translate(932,965)"/>
<path d="M0 0 C0.86998522 -0.00170885 1.73997045 -0.0034177 2.63631886 -0.00517833 C5.55061379 -0.0084718 8.46467832 0.00252818 11.37895203 0.01345825 C13.46833287 0.0140224 15.55771411 0.01370574 17.64709473 0.01257324 C23.32020611 0.01199886 28.9932331 0.02376714 34.66632485 0.03772116 C40.59471475 0.05021415 46.52310654 0.05139789 52.45150757 0.05377197 C63.67822137 0.05999094 74.90489627 0.07640743 86.13159293 0.09647095 C98.91259692 0.11881695 111.69360276 0.12982012 124.47462142 0.13986182 C150.76656504 0.16077327 177.05847413 0.19595739 203.35038757 0.24050903 C203.35038757 0.57050903 203.35038757 0.90050903 203.35038757 1.24050903 C132.73038757 1.57050903 62.11038757 1.90050903 -10.64961243 2.24050903 C-10.97961243 3.23050903 -11.30961243 4.22050903 -11.64961243 5.24050903 C-13.7997746 7.45210441 -15.95374957 9.63308918 -18.27851868 11.66238403 C-23.18245708 16.43633852 -23.41566583 20.95682135 -23.64179993 27.64285278 C-23.64437805 28.50007935 -23.64695618 29.35730591 -23.64961243 30.24050903 C-22.98961243 30.57050903 -22.32961243 30.90050903 -21.64961243 31.24050903 C-22.14461243 31.73550903 -22.14461243 31.73550903 -22.64961243 32.24050903 C-22.72564587 34.40594141 -22.73259565 36.57383903 -22.71211243 38.74050903 C-22.70336769 40.10948615 -22.69474615 41.47846405 -22.68623352 42.84744263 C-22.67689789 43.92527008 -22.67689789 43.92527008 -22.66737366 45.02487183 C-22.44225139 73.10790735 -22.44225139 73.10790735 -23.64961243 81.24050903 C-26.21326341 83.80416002 -27.89333987 83.47792579 -31.38775635 83.49275208 C-32.56731651 83.4819738 -32.56731651 83.4819738 -33.77070618 83.47097778 C-34.58523758 83.47051956 -35.39976898 83.47006134 -36.23898315 83.46958923 C-37.96986845 83.46656298 -39.70075094 83.45866557 -41.43159485 83.44631958 C-44.04538453 83.42829676 -46.65881455 83.42580841 -49.2726593 83.42605591 C-57.77688494 83.40742705 -66.19589591 83.28416291 -74.64961243 82.24050903 C-74.64961243 81.91050903 -74.64961243 81.58050903 -74.64961243 81.24050903 C-58.47961243 81.24050903 -42.30961243 81.24050903 -25.64961243 81.24050903 C-25.7192218 74.1983606 -25.7192218 74.1983606 -25.79023743 67.01394653 C-25.81068415 64.03345557 -25.82994035 61.0530515 -25.84492493 58.07254028 C-25.8688041 53.34530602 -25.89700319 48.6183827 -25.95137024 43.89138794 C-25.99494395 40.07881902 -26.01877367 36.26658372 -26.0291214 32.45378494 C-26.03649223 31.00174333 -26.05088599 29.54971925 -26.07253265 28.09782028 C-26.10172219 26.0582357 -26.10556229 24.02001614 -26.10371399 21.98025513 C-26.11259644 20.82109589 -26.12147888 19.66193665 -26.13063049 18.46765137 C-25.29513194 12.86230522 -21.89771333 9.10421595 -17.71211243 5.49050903 C-17.06371399 4.91816528 -16.41531555 4.34582153 -15.74726868 3.75613403 C-10.74658969 0.1429805 -6.00752732 -0.04319045 0 0 Z " fill="#306ACA" transform="translate(524.6496124267578,295.7594909667969)"/>
<path d="M0 0 C0.2475 0.61875 0.495 1.2375 0.75 1.875 C1.81201152 4.13023317 1.81201152 4.13023317 3.9375 4.9375 C6.8176556 6.42121652 7.73811616 8.05560437 9 11 C8.1875 12.875 8.1875 12.875 7 15 C6.77935268 18.75100437 7.02697022 22.21273581 7.49966431 25.94125366 C8.17010439 31.87386503 8.17102084 37.78770943 8.19287109 43.75244141 C8.20104858 45.0007222 8.20922607 46.24900299 8.21765137 47.53511047 C8.24234281 51.64059136 8.25913914 55.746036 8.2734375 59.8515625 C8.27880476 61.27197651 8.28418227 62.69239048 8.28956985 64.11280441 C8.31114888 70.02020451 8.32988688 75.92760212 8.34119225 81.83503151 C8.35745444 90.27245154 8.39074359 98.70941314 8.44759309 107.14666045 C8.48632099 113.09849439 8.50582741 119.05020573 8.51111281 125.00216234 C8.5147582 128.54988556 8.52669471 132.09711694 8.55921555 135.64470291 C8.59495359 139.59872128 8.59091804 143.55216339 8.58349609 147.50634766 C8.59990143 148.67328659 8.61630676 149.84022552 8.63320923 151.04252625 C8.57933132 158.05079689 7.8191433 161.80383869 3 167 C-2.17679792 170.18786658 -8.08256296 170.32276929 -14 170 C-14 169.67 -14 169.34 -14 169 C-13.02417969 168.79503906 -12.04835938 168.59007812 -11.04296875 168.37890625 C-9.77066406 168.10949219 -8.49835937 167.84007812 -7.1875 167.5625 C-5.92292969 167.29566406 -4.65835938 167.02882813 -3.35546875 166.75390625 C-0.02954587 166.06572114 -0.02954587 166.06572114 3 165 C4.05659303 161.8302209 4.13095021 159.58300679 4.14044189 156.25318909 C4.14615204 155.05476883 4.15186218 153.85634857 4.15774536 152.62161255 C4.15886322 151.30474457 4.15998108 149.98787659 4.16113281 148.63110352 C4.16576191 147.23142872 4.17078669 145.83175519 4.17617798 144.43208313 C4.18930263 140.62579179 4.19574806 136.81951811 4.20018864 133.01320767 C4.20312167 130.6316099 4.20722711 128.25001692 4.21169281 125.86842155 C4.22537323 118.40718596 4.23503496 110.94596136 4.2388947 103.48471409 C4.24336496 94.8914277 4.26086233 86.2983012 4.2898953 77.7050634 C4.31158458 71.05263784 4.32160297 64.40025699 4.32293582 57.74779648 C4.32397947 53.7802277 4.32979173 49.81280911 4.34775543 45.84527779 C4.36435993 42.10484614 4.36633236 38.3646755 4.35761642 34.62421989 C4.35649128 32.61550863 4.37011611 30.60680555 4.3843689 28.59814453 C4.3525932 21.61556402 3.68140682 15.41894729 1.74137497 8.69999599 C0.94978187 5.81711177 0.44862461 2.95389467 0 0 Z " fill="#1458C8" transform="translate(976,428)"/>
<path d="M0 0 C1.43552719 -0.00043808 1.43552719 -0.00043808 2.90005493 -0.00088501 C6.03828246 0.00049948 9.17626748 0.01601906 12.31445312 0.03173828 C14.50020213 0.03547154 16.68595282 0.03831704 18.8717041 0.04031372 C24.60588251 0.0479255 30.33995853 0.06755285 36.07409668 0.08972168 C41.93284724 0.11023309 47.79161445 0.11932674 53.65039062 0.12939453 C65.13220628 0.1508011 76.61394616 0.1849073 88.09570312 0.22705078 C88.09570312 0.88705078 88.09570312 1.54705078 88.09570312 2.22705078 C77.70779406 3.19383673 67.44617367 3.31740035 57.02485085 3.21051979 C54.23570094 3.18343099 51.44663534 3.16584781 48.65739441 3.15104675 C40.73799847 3.10872626 32.81877056 3.06057673 24.8996582 2.98022461 C20.02705833 2.93146823 15.15467838 2.90264785 10.28186607 2.88648033 C8.44041252 2.87665291 6.59898148 2.85955123 4.75766945 2.83469582 C-8.93009933 2.65384857 -19.71908221 3.28797898 -30.03320312 13.28955078 C-30.65066406 13.92892578 -31.268125 14.56830078 -31.90429688 15.22705078 C-32.68804688 16.03142578 -33.47179687 16.83580078 -34.27929688 17.66455078 C-38.71519149 24.65961537 -40.68128945 33.1318624 -38.90429688 41.22705078 C-38.65347912 46.49422366 -38.91790303 50.26106616 -40.90429688 55.22705078 C-42.22429688 54.89705078 -43.54429687 54.56705078 -44.90429688 54.22705078 C-44.24429688 54.22705078 -43.58429687 54.22705078 -42.90429688 54.22705078 C-42.92000732 53.64850342 -42.93571777 53.06995605 -42.9519043 52.47387695 C-43.61526139 24.34137866 -43.61526139 24.34137866 -32.90429688 12.22705078 C-23.10815921 3.1805306 -13.11673894 -0.10625902 0 0 Z " fill="#2966C4" transform="translate(582.904296875,609.77294921875)"/>
<path d="M0 0 C2.72574271 0.37330824 3.80822085 0.79194601 5.703125 2.84765625 C6.21359375 3.57855469 6.7240625 4.30945313 7.25 5.0625 C8.03117188 6.16271484 8.03117188 6.16271484 8.828125 7.28515625 C9.21484375 7.85105469 9.6015625 8.41695313 10 9 C9.47792969 9.8353125 9.47792969 9.8353125 8.9453125 10.6875 C7.75712779 13.59413367 8.14516665 14.97254312 8.875 18 C10.14896157 24.05131746 10.19354037 29.83896486 10 36 C10.99 36.495 10.99 36.495 12 37 C11.9292627 37.60626221 11.85852539 38.21252441 11.78564453 38.8371582 C10.97453606 46.57690061 10.84650342 54.27543873 10.86962891 62.05004883 C10.87494824 64.16690376 10.86967285 66.28354244 10.86328125 68.40039062 C10.86278476 74.10806863 10.87030125 79.78300966 11.33691406 85.47509766 C11.39509308 86.20070389 11.45327209 86.92631012 11.51321411 87.67390442 C11.68533246 89.68421612 11.8812462 91.69244939 12.07861328 93.70043945 C11.9896238 97.43551032 11.58721802 98.40216588 9 101 C6.66511536 101.48101807 6.66511536 101.48101807 3.88598633 101.45410156 C2.84513382 101.45379944 1.80428131 101.45349731 0.73188782 101.45318604 C-0.39006485 101.43254089 -1.51201752 101.41189575 -2.66796875 101.390625 C-3.81791824 101.38496521 -4.96786774 101.37930542 -6.15266418 101.37347412 C-9.8313634 101.35105474 -13.50909437 101.3008458 -17.1875 101.25 C-19.67902241 101.2299423 -22.17056006 101.21169026 -24.66210938 101.1953125 C-30.77507084 101.15117166 -36.88746626 101.08420349 -43 101 C-43 100.34 -43 99.68 -43 99 C-25.84 99 -8.68 99 9 99 C8.90879948 86.72248677 8.90879948 86.72248677 8.79101562 74.4453125 C8.73699558 69.42711281 8.68587673 64.40901756 8.65356445 59.390625 C8.62727112 55.33795746 8.58669243 51.28564728 8.53681374 47.23320389 C8.52031877 45.69855877 8.50869772 44.1638521 8.50238609 42.62913132 C8.44715883 30.41778476 7.49555362 18.51886133 2.3125 7.25 C0 2.14749263 0 2.14749263 0 0 Z " fill="#084EC9" transform="translate(789,278)"/>
<path d="M0 0 C0.33 0 0.66 0 1 0 C1.10222931 6.75849341 1.17181011 13.51678416 1.21972656 20.27587891 C1.2397223 22.57055106 1.26692802 24.86517304 1.30175781 27.15966797 C1.73739683 56.61655339 1.73739683 56.61655339 -8.78515625 68.8046875 C-15.67692886 75.6356861 -22.94899517 79.26456324 -32.73974609 79.22705078 C-33.38435791 79.22734283 -34.02896973 79.22763489 -34.69311523 79.22793579 C-36.80336423 79.22655315 -38.91325092 79.21104311 -41.0234375 79.1953125 C-42.49459643 79.19157856 -43.96575785 79.18873339 -45.43692017 79.18673706 C-49.29371098 79.17913056 -53.15034921 79.159508 -57.00708008 79.1373291 C-60.94870948 79.11680613 -64.89036373 79.10772159 -68.83203125 79.09765625 C-76.55475677 79.07625903 -84.27735694 79.04215949 -92 79 C-92 78.67 -92 78.34 -92 78 C-91.25355225 77.99191315 -90.50710449 77.98382629 -89.73803711 77.97549438 C-82.67663507 77.89730134 -75.61541844 77.80993771 -68.55426025 77.71247292 C-64.9247209 77.66269269 -61.29520811 77.61636238 -57.66552734 77.578125 C-54.15758055 77.54103961 -50.64986634 77.49461947 -47.14212036 77.44193649 C-45.16375381 77.41459803 -43.18526359 77.39673371 -41.20678711 77.37905884 C-32.53928315 77.23797091 -24.50604465 76.79109233 -17 72 C-15.13786088 69.97894748 -13.40136912 67.90879704 -11.7109375 65.7421875 C-9.80936128 63.80587929 -8.64783377 63.38156557 -6 63 C-5.87729736 62.27530518 -5.75459473 61.55061035 -5.62817383 60.80395508 C-5.00778668 58.03475708 -4.05203541 55.74470765 -2.94921875 53.13671875 C0.36157291 43.37489516 -0.61845908 32.98806947 -0.8125 22.8125 C-0.85501394 19.69361042 -0.89178605 16.57474669 -0.92399597 13.45573425 C-0.94570879 11.52588129 -0.97440077 9.59609191 -1.01069641 7.66645813 C-1.02368271 6.80433212 -1.03666901 5.94220612 -1.05004883 5.05395508 C-1.06433426 4.29294998 -1.07861969 3.53194489 -1.09333801 2.74787903 C-1 1 -1 1 0 0 Z " fill="#0451CD" transform="translate(702,696)"/>
<path d="M0 0 C-4.16391165 4.16391165 -12.16475138 3.11594124 -17.78572083 3.12442017 C-18.75748764 3.12082489 -19.72925446 3.11722961 -20.73046875 3.11352539 C-21.77526901 3.11367142 -22.82006927 3.11381744 -23.89653015 3.1139679 C-27.32687505 3.11327496 -30.75716467 3.10551168 -34.1875 3.09765625 C-36.57503225 3.09578987 -38.96256489 3.094367 -41.35009766 3.09336853 C-47.61689319 3.08956069 -53.88366533 3.07974525 -60.15045166 3.06866455 C-66.55212081 3.05841311 -72.95379375 3.05386292 -79.35546875 3.04882812 C-91.90365578 3.03812138 -104.45182664 3.0212596 -117 3 C-117 2.67 -117 2.34 -117 2 C-92.87892481 1.25656424 -68.76304134 0.7623377 -44.63250732 0.46777344 C-41.30661223 0.42659308 -37.98075051 0.38300051 -34.6548872 0.33933926 C-30.63842424 0.28665392 -26.62194877 0.23496105 -22.60546875 0.18359375 C-21.85926962 0.17403593 -21.11307049 0.16447811 -20.34425926 0.15463066 C-18.23496483 0.12786666 -16.1256633 0.10177155 -14.01635742 0.07592773 C-12.23064583 0.0538047 -12.23064583 0.0538047 -10.40885925 0.03123474 C-6.93903692 -0.00055859 -3.46994749 -0.00537864 0 0 Z " fill="#0552CC" transform="translate(932,965)"/>
<path d="M0 0 C2.62769888 -0.47776343 4.40722288 -0.33343713 6.75 0.984375 C11.85802121 4.90346024 14.53501957 9.74151744 16 16 C15.67 16.99 15.34 17.98 15 19 C14.92044248 21.17181002 14.90313192 23.34607273 14.91821289 25.51928711 C14.92281273 26.50517067 14.92281273 26.50517067 14.92750549 27.51097107 C14.93465347 28.93674374 14.9440398 30.36250655 14.95540047 31.78825188 C14.97279486 34.04532906 14.98309122 36.3023354 14.99131775 38.5594635 C15.01576826 44.97647811 15.05134405 51.39339723 15.09594727 57.81030273 C15.12274094 61.73650546 15.13977675 65.66265305 15.15081596 69.58893013 C15.15702174 71.08445842 15.16702208 72.57997598 15.18089485 74.0754528 C15.20012835 76.16747902 15.20700942 78.25921558 15.21118164 80.35131836 C15.22236778 82.13644081 15.22236778 82.13644081 15.23377991 83.95762634 C15.00879224 86.88557925 14.53493216 88.53543597 13 91 C12.99857498 90.02804687 12.99714996 89.05609375 12.99568176 88.0546875 C12.97897855 78.87407808 12.9361037 69.69391003 12.86790943 60.51353455 C12.83368642 55.79427798 12.80853676 51.07534354 12.80444336 46.35595703 C12.80015032 41.79745254 12.77160472 37.2396741 12.72656822 32.68139648 C12.71362525 30.94641354 12.70927417 29.21134356 12.71384621 27.47631836 C13.03318561 15.76867735 13.03318561 15.76867735 8.44120789 5.31030273 C5.88263277 2.98412342 3.28259988 2.02983526 0 1 C0 0.67 0 0.34 0 0 Z " fill="#0C51C2" transform="translate(659,643)"/>
<path d="M0 0 C1.25436607 0.48699371 1.25436607 0.48699371 2.53407288 0.98382568 C6.34647587 2.10158317 9.48538436 2.25392275 13.45483398 2.25878906 C14.17598389 2.2622937 14.89713379 2.26579834 15.64013672 2.26940918 C18.00888885 2.2781656 20.37733891 2.27239842 22.74609375 2.265625 C24.40226803 2.26697355 26.05844193 2.26891567 27.71461487 2.27142334 C31.18030579 2.27436648 34.64589338 2.27010362 38.11157227 2.26074219 C42.54099744 2.24935706 46.97017996 2.25590628 51.39959621 2.26788712 C54.8183625 2.27513524 58.23707186 2.2728041 61.65583992 2.26763153 C63.28842256 2.26630273 64.92101047 2.26791562 66.55358696 2.27259064 C68.84111982 2.2777036 71.12826712 2.26987891 73.41577148 2.25878906 C74.71449692 2.25719788 76.01322235 2.25560669 77.3513031 2.25396729 C81.23829414 1.98341355 84.31195666 1.19907762 88 0 C85.98643848 2.55476497 84.30501827 4.67014382 81.05105591 5.49261475 C78.6710724 5.69189829 76.32982286 5.74428838 73.94140625 5.7421875 C73.05215958 5.76017899 72.1629129 5.77817047 71.24671936 5.79670715 C68.35171941 5.84789175 65.45790559 5.86269168 62.5625 5.875 C60.57143644 5.89958179 58.58038761 5.92538583 56.58935547 5.95239258 C44.93255154 6.08416112 33.27775128 6.0254748 21.625 5.6875 C20.41658447 5.65317871 19.20816895 5.61885742 17.96313477 5.58349609 C5.40201294 5.08174455 5.40201294 5.08174455 1.125 1.375 C0.75375 0.92125 0.3825 0.4675 0 0 Z " fill="#0F52C1" transform="translate(577,741)"/>
<path d="M0 0 C-1.25103516 0.4021875 -1.25103516 0.4021875 -2.52734375 0.8125 C-10.55435962 3.60770369 -16.15866351 6.8292172 -22 13 C-22.78375 13.804375 -23.5675 14.60875 -24.375 15.4375 C-28.81089462 22.43256459 -30.77699257 30.90481162 -29 39 C-28.74918224 44.26717288 -29.01360615 48.03401538 -31 53 C-32.32 52.67 -33.64 52.34 -35 52 C-34.34 52 -33.68 52 -33 52 C-33.01571045 51.42145264 -33.0314209 50.84290527 -33.04760742 50.24682617 C-33.71096451 22.11432788 -33.71096451 22.11432788 -23 10 C-16.75525942 4.23311783 -8.85725019 -2.42563698 0 0 Z " fill="#1A5AC1" transform="translate(573,612)"/>
<path d="M0 0 C2.00720923 0.28674418 4.0085944 0.61866701 6 1 C3.39565131 2.73623246 2.02023931 3.40486932 -0.88671875 4.1484375 C-1.65266357 4.34727539 -2.4186084 4.54611328 -3.20776367 4.75097656 C-4.02607666 4.9569043 -4.84438965 5.16283203 -5.6875 5.375 C-6.53094971 5.59124023 -7.37439941 5.80748047 -8.2434082 6.03027344 C-9.98192924 6.47490129 -11.72111317 6.91694491 -13.4609375 7.35644531 C-15.820361 7.95446842 -18.17617033 8.56481962 -20.53125 9.1796875 C-21.91654586 9.53692712 -23.30195647 9.89372215 -24.6875 10.25 C-26.51861328 10.72179687 -26.51861328 10.72179687 -28.38671875 11.203125 C-32.21195393 12.04674443 -36.1130919 12.51413649 -40 13 C-40 29.17 -40 45.34 -40 62 C-40.33 62 -40.66 62 -41 62 C-41 45.5 -41 29 -41 12 C-39.68 11.34 -38.36 10.68 -37 10 C-36.34 10.33 -35.68 10.66 -35 11 C-35 10.34 -35 9.68 -35 9 C-34.14148438 8.86335937 -33.28296875 8.72671875 -32.3984375 8.5859375 C-25.37440002 7.37489656 -18.26400416 6.02022822 -11.625 3.375 C-8.03333278 2.01264347 -4.79620286 1.46484117 -1 1 C-0.67 0.67 -0.34 0.34 0 0 Z " fill="#3A79DA" transform="translate(744,683)"/>
<path d="M0 0 C1.1328125 1.7265625 1.1328125 1.7265625 2 4 C1.2421875 6.1484375 1.2421875 6.1484375 -0.125 8.375 C-0.84042969 9.55449219 -0.84042969 9.55449219 -1.5703125 10.7578125 C-2.04210937 11.49773438 -2.51390625 12.23765625 -3 13 C-3.66 14.0725 -4.32 15.145 -5 16.25 C-12.3941125 26.41690469 -24.78776128 33.65262461 -36 39 C-36.66 39 -37.32 39 -38 39 C-38 37.68 -38 36.36 -38 35 C-36.67548828 34.50693359 -36.67548828 34.50693359 -35.32421875 34.00390625 C-18.70409091 27.41655161 -7.27539294 16.43958982 0 0 Z " fill="#1E61CE" transform="translate(975,927)"/>
<path d="M0 0 C14.75320706 2.30737362 29.23036848 6.23816834 43.58203125 10.29296875 C51.35394095 12.48397732 59.03932721 14.58762257 67 16 C64 18 64 18 61.94702148 17.84399414 C61.17946533 17.65957764 60.41190918 17.47516113 59.62109375 17.28515625 C58.78255859 17.09373047 57.94402344 16.90230469 57.08007812 16.70507812 C56.20802734 16.49302734 55.33597656 16.28097656 54.4375 16.0625 C52.70844731 15.65154781 50.97802406 15.24630687 49.24609375 14.84765625 C48.47966553 14.66211182 47.7132373 14.47656738 46.92358398 14.28540039 C44.92124742 13.80035986 44.92124742 13.80035986 43 15 C43 14.01 43 13.02 43 12 C42.04351562 11.88914062 41.08703125 11.77828125 40.1015625 11.6640625 C34.55434944 10.87399642 29.22160064 9.20342248 23.8515625 7.640625 C19.36222563 6.39676415 16.59816988 5.99147947 12 7 C10.48046875 5.63671875 10.48046875 5.63671875 9 4 C6.73606029 3.21643098 6.73606029 3.21643098 4.3125 2.8125 C3.10013672 2.57466797 3.10013672 2.57466797 1.86328125 2.33203125 C1.24839844 2.22246094 0.63351562 2.11289062 0 2 C0 1.34 0 0.68 0 0 Z " fill="#2462C9" transform="translate(456,643)"/>
<path d="M0 0 C0.99 0.66 1.98 1.32 3 2 C-5.14450715 4.42657265 -13.29872498 6.59717079 -21.58276367 8.49023438 C-27.71821162 9.90186864 -33.77219011 11.54669152 -39.828125 13.265625 C-42.69664767 13.92976572 -45.07426112 14.15398626 -48 14 C-47.67 13.34 -47.34 12.68 -47 12 C-44.78515625 11.4375 -44.78515625 11.4375 -42.0625 11 C-38.07684725 10.4451989 -38.07684725 10.4451989 -35 8 C-34.34 8.33 -33.68 8.66 -33 9 C-30.39686112 8.27477671 -27.86829139 7.49152621 -25.3125 6.625 C-21.23920151 5.25087521 -17.44112666 4.06205452 -13.16796875 3.4609375 C-9.84928042 3.20943952 -9.84928042 3.20943952 -7 1 C-6.505 1.495 -6.505 1.495 -6 2 C-4.6078125 1.443125 -4.6078125 1.443125 -3.1875 0.875 C-2.135625 0.58625 -1.08375 0.2975 0 0 Z " fill="#0A57D1" transform="translate(839,659)"/>
<path d="M0 0 C3.16780041 1.00442452 6.19650341 2.08757217 9.234375 3.44140625 C12.9578253 5.04543706 16.74857339 6.18067545 20.6875 7.125 C21.40284912 7.29676758 22.11819824 7.46853516 22.85522461 7.64550781 C31.80268357 9.62125714 40.86951619 9.81115856 50 10 C50 10.33 50 10.66 50 11 C46.20840036 11.05886171 42.41692081 11.09388224 38.625 11.125 C37.03365234 11.15013672 37.03365234 11.15013672 35.41015625 11.17578125 C20.35023517 11.2681734 20.35023517 11.2681734 13.86572266 7.88720703 C11.96692138 6.72920276 11.96692138 6.72920276 9.6875 7.6875 C5.92527049 8.12496855 4.32693354 6.57602858 1.35546875 4.421875 C0 3 0 3 0 0 Z " fill="#0B54C8" transform="translate(291,957)"/>
<path d="M0 0 C7.24659422 2.39452679 11.94661377 8.5752009 15.4375 15.1875 C18.73861074 21.98216291 18.12141015 29.51576297 18.0625 36.875 C18.05798828 37.94492187 18.05347656 39.01484375 18.04882812 40.1171875 C18.03709749 42.74484986 18.02068228 45.37239538 18 48 C16 46 16 46 15.8046875 44.00048828 C15.82789063 43.19853027 15.85109375 42.39657227 15.875 41.5703125 C15.89046875 40.69246094 15.9059375 39.81460938 15.921875 38.91015625 C15.97373936 37.06119176 16.02582084 35.21223335 16.078125 33.36328125 C16.09359375 32.48285156 16.1090625 31.60242188 16.125 30.6953125 C16.14820313 29.89109863 16.17140625 29.08688477 16.1953125 28.25830078 C15.97699666 25.73402386 15.21650818 24.19905004 14 22 C13.48479018 19.33646245 13.27050087 16.70500869 13 14 C11.68 13.67 10.36 13.34 9 13 C9.33 11.68 9.66 10.36 10 9 C9.34 9 8.68 9 8 9 C6.72599625 7.52999567 5.4564992 6.05484219 4.2421875 4.53515625 C2.92663876 2.90933658 1.51786755 1.43797979 0 0 Z " fill="#0D54CC" transform="translate(685,617)"/>
<path d="M0 0 C0.66 0.66 1.32 1.32 2 2 C-6.32617337 4.73430189 -14.6590479 7.28115907 -23.1875 9.3125 C-24.24602173 9.56918457 -24.24602173 9.56918457 -25.32592773 9.83105469 C-28.94718357 10.66917525 -32.28129005 11.19496149 -36 11 C-36 10.34 -36 9.68 -36 9 C-32.38026598 7.68373308 -29.90432869 7 -26 7 C-23.79766327 6.38411557 -21.61065928 5.71202488 -19.4375 5 C-14.34753648 3.33608457 -10.30873887 3 -5 3 C-5 2.34 -5 1.68 -5 1 C-2.625 0.375 -2.625 0.375 0 0 Z " fill="#105AD0" transform="translate(788,672)"/>
<path d="M0 0 C2.72574271 0.37330824 3.80822085 0.79194601 5.703125 2.84765625 C6.21359375 3.57855469 6.7240625 4.30945313 7.25 5.0625 C8.03117188 6.16271484 8.03117188 6.16271484 8.828125 7.28515625 C9.21484375 7.85105469 9.6015625 8.41695313 10 9 C9.649375 9.52335937 9.29875 10.04671875 8.9375 10.5859375 C7.64504279 13.91401482 8.30999851 16.15146978 9 19.625 C9.6875 23.1015625 9.6875 23.1015625 10 26 C9.34 26.66 8.68 27.32 8 28 C7.76216797 26.69289063 7.76216797 26.69289063 7.51953125 25.359375 C6.05059598 17.86050104 4.15152238 11.3077839 0.98828125 4.328125 C0 2 0 2 0 0 Z " fill="#0A54C9" transform="translate(789,278)"/>
<path d="M0 0 C1.32 0.66 2.64 1.32 4 2 C4 2.66 4 3.32 4 4 C4.886875 4.144375 5.77375 4.28875 6.6875 4.4375 C8.54680097 4.75323035 10.40357343 5.09577661 12.23852539 5.53125 C15.69739983 6.11838102 18.98760894 6.09337964 22.49609375 6.0625 C23.20725845 6.05871338 23.91842316 6.05492676 24.65113831 6.05102539 C27.67513226 6.0347726 30.69898766 6.00662697 33.72290039 5.97949219 C35.93895839 5.96132582 38.15499406 5.94928385 40.37109375 5.9375 C41.69036865 5.92589844 43.00964355 5.91429687 44.36889648 5.90234375 C47.68745678 5.99159435 50.74781049 6.3605758 54 7 C54 7.33 54 7.66 54 8 C48.46819339 8.0497499 42.93651948 8.08588418 37.40454102 8.10986328 C35.52593718 8.11986873 33.64734871 8.13347733 31.76879883 8.15087891 C29.05546252 8.1753688 26.34233362 8.1865379 23.62890625 8.1953125 C22.80040665 8.20563507 21.97190704 8.21595764 21.11830139 8.22659302 C12.73667707 8.2281754 5.73575219 7.18134784 -1 2 C-0.67 1.34 -0.34 0.68 0 0 Z " fill="#0151CF" transform="translate(556,767)"/>
<path d="M0 0 C-2.33658256 1.55772171 -4.12619878 2.5701906 -6.6875 3.5625 C-7.31011719 3.81128906 -7.93273437 4.06007813 -8.57421875 4.31640625 C-11.29591472 5.08338982 -13.98688759 5.34995077 -16.7902832 5.66723633 C-20.70803048 6.25721418 -24.45873221 7.43459783 -28.25 8.5625 C-29.81627179 9.02700707 -31.38394481 9.48682111 -32.953125 9.94140625 C-33.63536133 10.14451416 -34.31759766 10.34762207 -35.02050781 10.55688477 C-37 11 -37 11 -41 11 C-41 10.34 -41 9.68 -41 9 C-40.16359985 8.80422363 -40.16359985 8.80422363 -39.31030273 8.60449219 C-36.68547976 7.98866315 -34.0613763 7.3698504 -31.4375 6.75 C-30.48617187 6.52546143 -29.53484375 6.30092285 -28.5546875 6.06958008 C-21.66693562 4.43049444 -14.83991299 2.63907431 -8.03125 0.69921875 C-5.22373722 0.05160949 -2.86544392 -0.14434139 0 0 Z " fill="#2163CA" transform="translate(815,637)"/>
<path d="M0 0 C2.56640625 0.20703125 2.56640625 0.20703125 5.5625 0.8125 C7.04943359 1.10060547 7.04943359 1.10060547 8.56640625 1.39453125 C11 2 11 2 12 3 C14.99741857 3.53962604 18.00554327 3.96548069 21.01953125 4.40234375 C23.71202687 4.9422544 25.64147486 5.6351392 28 7 C28 7.66 28 8.32 28 9 C17.80395169 7.46486464 7.93496549 4.69736887 -2 2 C-1.34 1.34 -0.68 0.68 0 0 Z " fill="#1B60D2" transform="translate(465,674)"/>
<path d="M0 0 C0.99 0.33 1.98 0.66 3 1 C2.75636719 1.9590625 2.75636719 1.9590625 2.5078125 2.9375 C1.83770646 6.97875488 1.8550878 10.91136184 1.875 15 C1.87113281 15.7940625 1.86726562 16.588125 1.86328125 17.40625 C1.86998008 21.42554855 2.1128478 25.06280387 3 29 C2.55928796 32.61383869 1.67627549 34.64744901 0 38 C0 25.46 0 12.92 0 0 Z " fill="#0247C1" transform="translate(541,695)"/>
<path d="M0 0 C0.2475 0.61875 0.495 1.2375 0.75 1.875 C1.81201152 4.13023317 1.81201152 4.13023317 3.9375 4.9375 C6.71944543 6.3706234 7.56938502 8.28183153 9 11 C7.68 13.31 6.36 15.62 5 18 C4.67 18 4.34 18 4 18 C3.51779737 16.12577848 3.03938167 14.25058246 2.5625 12.375 C2.16224609 10.80878906 2.16224609 10.80878906 1.75390625 9.2109375 C1.03547461 6.15108876 0.48023284 3.1051949 0 0 Z " fill="#0B53C9" transform="translate(976,428)"/>
<path d="M0 0 C2.62769888 -0.47776343 4.40722288 -0.33343713 6.75 0.984375 C11.87414697 4.91583259 14.47029368 9.74620061 16 16 C15.67 16.66 15.34 17.32 15 18 C14.77141886 20.0374763 14.58975722 22.08040303 14.4375 24.125 C14.35371094 25.22070312 14.26992188 26.31640625 14.18359375 27.4453125 C14.12300781 28.28835938 14.06242188 29.13140625 14 30 C13.67 30 13.34 30 13 30 C12.98582031 28.7934375 12.97164062 27.586875 12.95703125 26.34375 C13.01611014 15.20590681 13.01611014 15.20590681 8.54296875 5.34765625 C5.90699231 3.04534772 3.32957801 2.04457349 0 1 C0 0.67 0 0.34 0 0 Z " fill="#1A5CCB" transform="translate(659,643)"/>
<path d="M0 0 C0.66 0.33 1.32 0.66 2 1 C4.3329866 1.04022391 6.66706666 1.04320247 9 1 C4.76103972 3.25096006 0.43551233 4.35571832 -4.1875 5.5625 C-5.00025391 5.78357422 -5.81300781 6.00464844 -6.65039062 6.23242188 C-12.10265133 7.66814049 -17.38368117 8.4976358 -23 9 C-18.28131659 4.28131659 -10.25712 3.99405442 -3.94921875 2.78125 C-2.97597656 2.5234375 -2.00273438 2.265625 -1 2 C-0.67 1.34 -0.34 0.68 0 0 Z " fill="#1C64D5" transform="translate(869,650)"/>
<path d="M0 0 C2.32867177 3.49300765 2.14192599 4.40241622 1.6875 8.4375 C1.58824219 9.38496094 1.48898437 10.33242188 1.38671875 11.30859375 C0.81420756 15.29304033 -0.27446263 18.94188951 -1.5625 22.75 C-1.83191406 23.54921875 -2.10132813 24.3484375 -2.37890625 25.171875 C-2.58386719 25.77515625 -2.78882813 26.3784375 -3 27 C-3.99 27 -4.98 27 -6 27 C-5.81824219 26.3915625 -5.63648438 25.783125 -5.44921875 25.15625 C-3.07069555 16.86191269 -1.50135749 8.48639661 0 0 Z " fill="#0E56CE" transform="translate(982,900)"/>
<path d="M0 0 C13.88502978 2.96641058 13.88502978 2.96641058 19.70703125 5.64453125 C20.03703125 6.30453125 20.36703125 6.96453125 20.70703125 7.64453125 C14.99703186 6.80821821 9.43552423 5.43734764 3.83203125 4.08203125 C2.8575 3.84806641 1.88296875 3.61410156 0.87890625 3.37304688 C-1.51216918 2.79871993 -3.90277071 2.2224968 -6.29296875 1.64453125 C-3.29296875 -0.35546875 -3.29296875 -0.35546875 0 0 Z " fill="#195FD7" transform="translate(406.29296875,658.35546875)"/>
<path d="M0 0 C-2.76635878 1.84423918 -4.38750924 2.50481826 -7.52734375 3.2890625 C-8.40197266 3.50820313 -9.27660156 3.72734375 -10.17773438 3.953125 C-11.54381836 4.28570313 -11.54381836 4.28570313 -12.9375 4.625 C-14.2977832 4.96917969 -14.2977832 4.96917969 -15.68554688 5.3203125 C-19.63597047 6.29701767 -22.89609249 7 -27 7 C-27 6.34 -27 5.68 -27 5 C-26.37432129 4.85377197 -25.74864258 4.70754395 -25.10400391 4.55688477 C-22.27705709 3.89467208 -19.45102513 3.2286345 -16.625 2.5625 C-15.64015625 2.33240234 -14.6553125 2.10230469 -13.640625 1.86523438 C-12.69960938 1.64287109 -11.75859375 1.42050781 -10.7890625 1.19140625 C-9.91975098 0.98717041 -9.05043945 0.78293457 -8.15478516 0.57250977 C-2.818058 -0.8454174 -2.818058 -0.8454174 0 0 Z " fill="#1D5EC7" transform="translate(959,600)"/>
<path d="M0 0 C0.99 0.99 1.98 1.98 3 3 C-7.18906606 11.81548975 -7.18906606 11.81548975 -14 13 C-14 12.34 -14 11.68 -14 11 C-12.80375 10.484375 -11.6075 9.96875 -10.375 9.4375 C-5.7794364 7.17242684 -3.01707592 4.06848117 0 0 Z " fill="#1760D1" transform="translate(691,761)"/>
<path d="M0 0 C0.66 0.33 1.32 0.66 2 1 C-0.45721379 6.06800345 -4.42451491 9.79900539 -9 13 C-9.99 13 -10.98 13 -12 13 C-8.19524578 8.43969176 -4.25030379 4.14910608 0 0 Z " fill="#1972F8" transform="translate(101,86)"/>
<path d="M0 0 C-0.88042969 0.31453125 -1.76085937 0.6290625 -2.66796875 0.953125 C-3.82941406 1.38109375 -4.99085938 1.8090625 -6.1875 2.25 C-7.33605469 2.66765625 -8.48460937 3.0853125 -9.66796875 3.515625 C-13.06702076 4.85534189 -13.06702076 4.85534189 -15.73828125 7.234375 C-16.48464844 7.81703125 -17.23101563 8.3996875 -18 9 C-18.99 8.67 -19.98 8.34 -21 8 C-7.45334886 -2.19405941 -7.45334886 -2.19405941 0 0 Z " fill="#1D5CC1" transform="translate(573,612)"/>
<path d="M0 0 C0.33 0 0.66 0 1 0 C1.1953125 6.0546875 1.1953125 6.0546875 1 8 C0.34 8.66 -0.32 9.32 -1 10 C-1.2165625 11.7325 -1.2165625 11.7325 -1.4375 13.5 C-1.623125 14.655 -1.80875 15.81 -2 17 C-2.99 17.66 -3.98 18.32 -5 19 C-4.39297368 12.3227105 -2.22368606 6.29872004 0 0 Z " fill="#2E7FF8" transform="translate(34,185)"/>
<path d="M0 0 C0.99 0.33 1.98 0.66 3 1 C1.57282151 2.67551353 0.13291518 4.34019309 -1.3125 6 C-2.51326172 7.3921875 -2.51326172 7.3921875 -3.73828125 8.8125 C-6 11 -6 11 -9 11 C-7.68823998 9.35357683 -6.3755713 7.70787757 -5.0625 6.0625 C-4.33160156 5.14597656 -3.60070312 4.22945313 -2.84765625 3.28515625 C-1 1 -1 1 0 0 Z " fill="#1971F8" transform="translate(80,108)"/>
<path d="M0 0 C0.99 0 1.98 0 3 0 C5.1875 1 5.1875 1 7 2 C7 2.66 7 3.32 7 4 C1.49191603 3.40984815 -3.64878069 2.43336231 -9 1 C-9 0.67 -9 0.34 -9 0 C-5.57233436 -0.85691641 -3.37248325 -1.01174497 0 0 Z " fill="#2568D3" transform="translate(510,685)"/>
<path d="M0 0 C1.11082399 3.0856222 0.86386973 5.46349705 0.32421875 8.65234375 C-0.42335628 14.06550754 -0.64468589 19.54933043 -1 25 C-1.33 25 -1.66 25 -2 25 C-2.05800828 21.39590081 -2.09359869 17.79192149 -2.125 14.1875 C-2.14175781 13.16333984 -2.15851562 12.13917969 -2.17578125 11.08398438 C-2.18222656 10.10107422 -2.18867187 9.11816406 -2.1953125 8.10546875 C-2.20578613 7.19949951 -2.21625977 6.29353027 -2.22705078 5.36010742 C-2 3 -2 3 0 0 Z " fill="#0648BC" transform="translate(543,635)"/>
<path d="M0 0 C0.66 0.33 1.32 0.66 2 1 C2 4 2 4 0.25 5.82421875 C-0.4925 6.43910156 -1.235 7.05398438 -2 7.6875 C-3.11375 8.62142578 -3.11375 8.62142578 -4.25 9.57421875 C-4.8275 10.04472656 -5.405 10.51523437 -6 11 C-6.66 10.34 -7.32 9.68 -8 9 C-6.85459775 7.68712379 -5.70866567 6.37470979 -4.5625 5.0625 C-3.92441406 4.33160156 -3.28632812 3.60070312 -2.62890625 2.84765625 C-1.77458541 1.87860647 -0.91348825 0.91348825 0 0 Z " fill="#0F57CD" transform="translate(966,943)"/>
<path d="M0 0 C4.19283118 0.64844086 8.26499921 1.51216646 12.375 2.5625 C13.43460937 2.83191406 14.49421875 3.10132813 15.5859375 3.37890625 C16.38257813 3.58386719 17.17921875 3.78882813 18 4 C14.25 7 14.25 7 12 7 C11.56042969 6.52949219 11.12085938 6.05898438 10.66796875 5.57421875 C8.5978805 3.62048207 7.08586266 3.3350176 4.3125 2.8125 C3.10013672 2.57466797 3.10013672 2.57466797 1.86328125 2.33203125 C1.24839844 2.22246094 0.63351562 2.11289062 0 2 C0 1.34 0 0.68 0 0 Z " fill="#165BC8" transform="translate(456,643)"/>
<path d="M0 0 C-1.32258472 0.68774405 -2.65986503 1.34711373 -4 2 C-5.0725 2.556875 -6.145 3.11375 -7.25 3.6875 C-11.85330902 5.29865816 -14.27786508 4.9112892 -19 4 C-13.08598549 0.81553065 -6.6951108 -0.34333902 0 0 Z " fill="#1F60C6" transform="translate(731,659)"/>
<path d="M0 0 C0.33 0 0.66 0 1 0 C2.20443195 7.05453001 3.28100502 13.83437211 3 21 C2.67 21 2.34 21 2 21 C-0.62096065 14.11997829 -0.18170362 7.27823961 0 0 Z " fill="#4691FC" transform="translate(1222,228)"/>
<path d="M0 0 C0.99 0.66 1.98 1.32 3 2 C1.44033782 2.508783 -0.12289241 3.00663469 -1.6875 3.5 C-2.99267578 3.91765625 -2.99267578 3.91765625 -4.32421875 4.34375 C-6.99391677 4.99850805 -9.26396684 5.11831495 -12 5 C-12 4.34 -12 3.68 -12 3 C-8.38026598 1.68373308 -5.90432869 1 -2 1 C-1.34 0.67 -0.68 0.34 0 0 Z " fill="#0751CB" transform="translate(764,678)"/>
<path d="M0 0 C0.99 0.66 1.98 1.32 3 2 C-2.28 3.32 -7.56 4.64 -13 6 C-11.35 4.35 -9.7 2.7 -8 1 C-7.34 1.33 -6.68 1.66 -6 2 C-5.030625 1.649375 -4.06125 1.29875 -3.0625 0.9375 C-2.051875 0.628125 -1.04125 0.31875 0 0 Z " fill="#1E63D4" transform="translate(839,659)"/>
<path d="M0 0 C0.66 0.33 1.32 0.66 2 1 C-3.10703423 5.66928844 -7.61842957 5.35199549 -14.3671875 5.140625 C-15.67042969 5.07101562 -15.67042969 5.07101562 -17 5 C-17 4.67 -17 4.34 -17 4 C-16.35933594 3.96261719 -15.71867188 3.92523437 -15.05859375 3.88671875 C-10.74353522 3.55874858 -6.95743863 3.20730245 -3 1.375 C-2.01 0.92125 -1.02 0.4675 0 0 Z " fill="#0E50BF" transform="translate(663,741)"/>
<path d="M0 0 C0.66 0.33 1.32 0.66 2 1 C-0.31 3.97 -2.62 6.94 -5 10 C-5.66 9.67 -6.32 9.34 -7 9 C-5.44499019 5.18315774 -2.96404505 2.80804268 0 0 Z " fill="#1371F8" transform="translate(1169,1142)"/>
<path d="M0 0 C2.1640625 0.2421875 2.1640625 0.2421875 4.625 0.875 C5.44226563 1.07867188 6.25953125 1.28234375 7.1015625 1.4921875 C8.04128906 1.74355469 8.04128906 1.74355469 9 2 C9 2.66 9 3.32 9 4 C9.99 4.33 10.98 4.66 12 5 C7.13103697 4.40380045 2.67209049 3.43023178 -2 2 C-1.34 1.34 -0.68 0.68 0 0 Z " fill="#2D6DD5" transform="translate(520,688)"/>
<path d="M0 0 C0.33 0 0.66 0 1 0 C1.49230769 6.4 1.49230769 6.4 -1 9.4375 C-1.99 10.2109375 -1.99 10.2109375 -3 11 C-3.99 10.67 -4.98 10.34 -6 10 C-5.38125 9.278125 -4.7625 8.55625 -4.125 7.8125 C-2.16333647 5.21618062 -1.04684 3.05328334 0 0 Z " fill="#2468CE" transform="translate(671,730)"/>
<path d="M0 0 C-2.3958096 1.5972064 -4.36637365 2.69255912 -7 3.75 C-8.0209375 4.17539062 -8.0209375 4.17539062 -9.0625 4.609375 C-9.701875 4.73828125 -10.34125 4.8671875 -11 5 C-11.99 4.34 -12.98 3.68 -14 3 C-4.58997722 -0.44419134 -4.58997722 -0.44419134 0 0 Z " fill="#1458C2" transform="translate(815,637)"/>
<path d="M0 0 C4.82360189 -0.19294408 8.49646738 0.24252386 13 2 C12.67 2.66 12.34 3.32 12 4 C11.05125 3.814375 10.1025 3.62875 9.125 3.4375 C6.10131207 2.71313368 6.10131207 2.71313368 4 4 C4 3.01 4 2.02 4 1 C2.68 0.67 1.36 0.34 0 0 Z " fill="#0B51C2" transform="translate(495,654)"/>
<path d="M0 0 C4.99275057 1.27721526 7.57611908 3.17330957 11 7 C7.31985875 6.29228053 4.23833582 4.87103847 1 3 C0.67 2.01 0.34 1.02 0 0 Z " fill="#2B68CE" transform="translate(729,297)"/>
<path d="M0 0 C0.66 0 1.32 0 2 0 C0.6581656 4.02550319 -1.4227573 4.88285636 -5 7 C-5.66 7 -6.32 7 -7 7 C-6 4 -6 4 -3 2 C-2.01 2 -1.02 2 0 2 C0 1.34 0 0.68 0 0 Z " fill="#1F76F9" transform="translate(1118,1189)"/>
<path d="M0 0 C4.455 1.98 4.455 1.98 9 4 C8.67 4.99 8.34 5.98 8 7 C6.66144944 6.21718695 5.32926356 5.42348123 4 4.625 C3.2575 4.18414063 2.515 3.74328125 1.75 3.2890625 C1.1725 2.86367188 0.595 2.43828125 0 2 C0 1.34 0 0.68 0 0 Z " fill="#065CD3" transform="translate(291,958)"/>
<path d="M0 0 C1.32 0.66 2.64 1.32 4 2 C4 2.66 4 3.32 4 4 C5.32 4 6.64 4 8 4 C8.33 4.99 8.66 5.98 9 7 C4.56909529 5.79157144 2.01887244 4.48331435 -1 1 C-0.67 0.67 -0.34 0.34 0 0 Z " fill="#2D6CD4" transform="translate(556,767)"/>
<path d="M0 0 C2.64465038 3.1254959 3.84414715 6.08788267 5 10 C2 9 2 9 0.8125 7.25 C-0.10819096 4.70039426 -0.14948718 2.69076919 0 0 Z " fill="#297EFB" transform="translate(1195,151)"/>
<path d="M0 0 C0 0.66 0 1.32 0 2 C-2.75078884 2.91692961 -4.35948913 3.10886083 -7.1875 3.0625 C-9.0746875 3.0315625 -9.0746875 3.0315625 -11 3 C-6.9903514 0.32690093 -4.82843714 0 0 0 Z " fill="#3789F9" transform="translate(215,27)"/>
<path d="M0 0 C2.31 0.33 4.62 0.66 7 1 C6.67 1.66 6.34 2.32 6 3 C3.93359375 3.4140625 3.93359375 3.4140625 1.4375 3.625 C0.61121094 3.69976563 -0.21507812 3.77453125 -1.06640625 3.8515625 C-2.02353516 3.92503906 -2.02353516 3.92503906 -3 4 C-2.01 2.68 -1.02 1.36 0 0 Z " fill="#185ED1" transform="translate(803,667)"/>
<path d="M0 0 C1.258125 0.12375 2.51625 0.2475 3.8125 0.375 C4.87404297 0.47941406 4.87404297 0.47941406 5.95703125 0.5859375 C8 1 8 1 11 3 C6.99799622 4.60080151 3.95443764 3.29279692 0 2 C0 1.34 0 0.68 0 0 Z " fill="#286ACC" transform="translate(527,661)"/>
<path d="M0 0 C2.7972908 2.06756277 3.02692273 3.14440371 3.6875 6.6875 C3.790625 7.780625 3.89375 8.87375 4 10 C3.34 9.34 2.68 8.68 2 8 C2 7.01 2 6.02 2 5 C1.34 5 0.68 5 0 5 C0 3.35 0 1.7 0 0 Z " fill="#205FCF" transform="translate(740,304)"/>
<path d="M0 0 C-3.20380017 2.13586678 -4.01939967 2.23132175 -7.6875 2.125 C-8.89986328 2.09792969 -8.89986328 2.09792969 -10.13671875 2.0703125 C-11.05904297 2.03550781 -11.05904297 2.03550781 -12 2 C-12 1.67 -12 1.34 -12 1 C-3.96428571 -1.27678571 -3.96428571 -1.27678571 0 0 Z " fill="#3571CD" transform="translate(762,651)"/>
<path d="M0 0 C1 3 1 3 0.25 5.625 C-1 8 -1 8 -4 9 C-2.94124926 5.59687262 -1.99097846 2.98646769 0 0 Z " fill="#2962C3" transform="translate(546,627)"/>
<path d="M0 0 C0 0.66 0 1.32 0 2 C-2.64 2.99 -5.28 3.98 -8 5 C-8.33 4.34 -8.66 3.68 -9 3 C-2.25 0 -2.25 0 0 0 Z " fill="#2077F7" transform="translate(175,40)"/>
</svg>
